solid OpenSCAD_Model
  facet normal 1 -0 0
    outer loop
      vertex 120 0 2
      vertex 120 115.5 0
      vertex 120 115.5 2
    endloop
  endfacet
  facet normal 1 0 0
    outer loop
      vertex 120 115.5 0
      vertex 120 0 2
      vertex 120 0 0
    endloop
  endfacet
  facet normal 0 0 1
    outer loop
      vertex 20 19 2
      vertex 12 15 2
      vertex 20 10.2199 2
    endloop
  endfacet
  facet normal 0 0 1
    outer loop
      vertex 20 19 2
      vertex 11.247 16.5637 2
      vertex 12 15 2
    endloop
  endfacet
  facet normal -0 0 1
    outer loop
      vertex 10.2199 19 2
      vertex 11.247 16.5637 2
      vertex 20 19 2
    endloop
  endfacet
  facet normal 0 0 1
    outer loop
      vertex 10.2199 19 2
      vertex 9.55496 16.9499 2
      vertex 11.247 16.5637 2
    endloop
  endfacet
  facet normal 0 0 1
    outer loop
      vertex 10.2199 24 2
      vertex 9.55496 16.9499 2
      vertex 10.2199 19 2
    endloop
  endfacet
  facet normal 0 0 1
    outer loop
      vertex 10.2199 91.5 2
      vertex 0 115.5 2
      vertex 10.2199 24 2
    endloop
  endfacet
  facet normal 0 0 1
    outer loop
      vertex 10.2199 24 2
      vertex 8.19806 15.8678 2
      vertex 9.55496 16.9499 2
    endloop
  endfacet
  facet normal 0 0 1
    outer loop
      vertex 60 19 2
      vertex 40 19 2
      vertex 60 10.2199 2
    endloop
  endfacet
  facet normal 0 0 1
    outer loop
      vertex 100 96.5 2
      vertex 80 105.28 2
      vertex 80 96.5 2
    endloop
  endfacet
  facet normal 0 0 1
    outer loop
      vertex 60 96.5 2
      vertex 40 105.28 2
      vertex 40 96.5 2
    endloop
  endfacet
  facet normal -0 0 1
    outer loop
      vertex 11.247 98.9363 2
      vertex 20 96.5 2
      vertex 12 100.5 2
    endloop
  endfacet
  facet normal 0 0 1
    outer loop
      vertex 11.247 98.9363 2
      vertex 10.2199 96.5 2
      vertex 20 96.5 2
    endloop
  endfacet
  facet normal 0 0 1
    outer loop
      vertex 8.19806 99.6322 2
      vertex 10.2199 96.5 2
      vertex 9.55496 98.5501 2
    endloop
  endfacet
  facet normal 0 0 1
    outer loop
      vertex 10.2199 96.5 2
      vertex 8.19806 99.6322 2
      vertex 10.2199 91.5 2
    endloop
  endfacet
  facet normal 0 0 1
    outer loop
      vertex 0 115.5 2
      vertex 10.2199 91.5 2
      vertex 8.19806 99.6322 2
    endloop
  endfacet
  facet normal -0 0 1
    outer loop
      vertex 9.55496 98.5501 2
      vertex 10.2199 96.5 2
      vertex 11.247 98.9363 2
    endloop
  endfacet
  facet normal -0 0 1
    outer loop
      vertex 10.2199 91.5 2
      vertex 19 24 2
      vertex 19 91.5 2
    endloop
  endfacet
  facet normal 0 0 1
    outer loop
      vertex 19 24 2
      vertex 10.2199 91.5 2
      vertex 10.2199 24 2
    endloop
  endfacet
  facet normal 0 0 1
    outer loop
      vertex 96 10 2
      vertex 104.865 14.1322 2
      vertex 96 13 2
    endloop
  endfacet
  facet normal 0 0 1
    outer loop
      vertex 100 19 2
      vertex 84 13 2
      vertex 96 13 2
    endloop
  endfacet
  facet normal 0 0 1
    outer loop
      vertex 80 10.2199 2
      vertex 84 13 2
      vertex 80 19 2
    endloop
  endfacet
  facet normal -0 0 1
    outer loop
      vertex 80 19 2
      vertex 84 13 2
      vertex 100 19 2
    endloop
  endfacet
  facet normal -0 0 1
    outer loop
      vertex 21 24 2
      vertex 100 21 2
      vertex 100 24 2
    endloop
  endfacet
  facet normal 0 0 1
    outer loop
      vertex 100 21 2
      vertex 21 24 2
      vertex 21 21 2
    endloop
  endfacet
  facet normal -0 0 1
    outer loop
      vertex 21 94.5 2
      vertex 100 91.5 2
      vertex 100 94.5 2
    endloop
  endfacet
  facet normal 0 0 1
    outer loop
      vertex 100 91.5 2
      vertex 21 94.5 2
      vertex 21 91.5 2
    endloop
  endfacet
  facet normal -0 0 1
    outer loop
      vertex 107.914 16.5637 2
      vertex 120 0 2
      vertex 107.914 98.9363 2
    endloop
  endfacet
  facet normal 0 0 1
    outer loop
      vertex 120 0 2
      vertex 107.914 16.5637 2
      vertex 108.667 15 2
    endloop
  endfacet
  facet normal 0 0 1
    outer loop
      vertex 100 91.5 2
      vertex 107.914 98.9363 2
      vertex 106.222 98.5501 2
    endloop
  endfacet
  facet normal 0 0 1
    outer loop
      vertex 107.914 98.9363 2
      vertex 100 91.5 2
      vertex 107.914 16.5637 2
    endloop
  endfacet
  facet normal 0 0 1
    outer loop
      vertex 100 96.5 2
      vertex 106.222 98.5501 2
      vertex 104.865 99.6322 2
    endloop
  endfacet
  facet normal -0 0 1
    outer loop
      vertex 100 24 2
      vertex 107.914 16.5637 2
      vertex 100 91.5 2
    endloop
  endfacet
  facet normal 0 0 1
    outer loop
      vertex 107.914 98.9363 2
      vertex 120 115.5 2
      vertex 108.667 100.5 2
    endloop
  endfacet
  facet normal 0 0 1
    outer loop
      vertex 120 115.5 2
      vertex 107.914 102.064 2
      vertex 108.667 100.5 2
    endloop
  endfacet
  facet normal 0 0 1
    outer loop
      vertex 120 115.5 2
      vertex 106.222 102.45 2
      vertex 107.914 102.064 2
    endloop
  endfacet
  facet normal -0 0 1
    outer loop
      vertex 80 105.28 2
      vertex 106.222 102.45 2
      vertex 120 115.5 2
    endloop
  endfacet
  facet normal 0 0 1
    outer loop
      vertex 100 96.5 2
      vertex 104.865 99.6322 2
      vertex 104.865 101.368 2
    endloop
  endfacet
  facet normal 0 0 1
    outer loop
      vertex 107.914 16.5637 2
      vertex 100 24 2
      vertex 106.222 16.9499 2
    endloop
  endfacet
  facet normal 0 0 1
    outer loop
      vertex 106.222 98.5501 2
      vertex 100 96.5 2
      vertex 100 94.5 2
    endloop
  endfacet
  facet normal 0 0 1
    outer loop
      vertex 104.865 101.368 2
      vertex 80 105.28 2
      vertex 100 96.5 2
    endloop
  endfacet
  facet normal 0 0 1
    outer loop
      vertex 106.222 102.45 2
      vertex 80 105.28 2
      vertex 104.865 101.368 2
    endloop
  endfacet
  facet normal 0 0 1
    outer loop
      vertex 120 115.5 2
      vertex 60 105.28 2
      vertex 80 105.28 2
    endloop
  endfacet
  facet normal 0 0 1
    outer loop
      vertex 60 105.28 2
      vertex 40 105.28 2
      vertex 60 96.5 2
    endloop
  endfacet
  facet normal -0 0 1
    outer loop
      vertex 0 115.5 2
      vertex 60 105.28 2
      vertex 120 115.5 2
    endloop
  endfacet
  facet normal 0 0 1
    outer loop
      vertex 60 105.28 2
      vertex 0 115.5 2
      vertex 40 105.28 2
    endloop
  endfacet
  facet normal 0 0 1
    outer loop
      vertex 20 105.28 2
      vertex 12 100.5 2
      vertex 20 96.5 2
    endloop
  endfacet
  facet normal 0 0 1
    outer loop
      vertex 20 105.28 2
      vertex 11.247 102.064 2
      vertex 12 100.5 2
    endloop
  endfacet
  facet normal 0 0 1
    outer loop
      vertex 20 105.28 2
      vertex 9.55496 102.45 2
      vertex 11.247 102.064 2
    endloop
  endfacet
  facet normal 0 0 1
    outer loop
      vertex 0 115.5 2
      vertex 8.19806 99.6322 2
      vertex 8.19806 101.368 2
    endloop
  endfacet
  facet normal 0 0 1
    outer loop
      vertex 0 0 2
      vertex 10.2199 24 2
      vertex 0 115.5 2
    endloop
  endfacet
  facet normal 0 0 1
    outer loop
      vertex 10.2199 24 2
      vertex 0 0 2
      vertex 8.19806 15.8678 2
    endloop
  endfacet
  facet normal 0 0 1
    outer loop
      vertex 9.55496 102.45 2
      vertex 0 115.5 2
      vertex 8.19806 101.368 2
    endloop
  endfacet
  facet normal 0 0 1
    outer loop
      vertex 20 105.28 2
      vertex 0 115.5 2
      vertex 9.55496 102.45 2
    endloop
  endfacet
  facet normal 0 0 1
    outer loop
      vertex 40 105.28 2
      vertex 0 115.5 2
      vertex 20 105.28 2
    endloop
  endfacet
  facet normal 0 0 1
    outer loop
      vertex 120 115.5 2
      vertex 107.914 98.9363 2
      vertex 120 0 2
    endloop
  endfacet
  facet normal -0 0 1
    outer loop
      vertex 107.914 13.4363 2
      vertex 120 0 2
      vertex 108.667 15 2
    endloop
  endfacet
  facet normal -0 0 1
    outer loop
      vertex 106.222 13.0501 2
      vertex 120 0 2
      vertex 107.914 13.4363 2
    endloop
  endfacet
  facet normal 0 0 1
    outer loop
      vertex 97 4 2
      vertex 106.222 13.0501 2
      vertex 104.865 14.1322 2
    endloop
  endfacet
  facet normal 0 0 1
    outer loop
      vertex 106.222 98.5501 2
      vertex 100 94.5 2
      vertex 100 91.5 2
    endloop
  endfacet
  facet normal -0 0 1
    outer loop
      vertex 100 21 2
      vertex 106.222 16.9499 2
      vertex 100 24 2
    endloop
  endfacet
  facet normal -0 0 1
    outer loop
      vertex 100 19 2
      vertex 106.222 16.9499 2
      vertex 100 21 2
    endloop
  endfacet
  facet normal 0 0 1
    outer loop
      vertex 106.222 16.9499 2
      vertex 100 19 2
      vertex 104.865 15.8678 2
    endloop
  endfacet
  facet normal 0 0 1
    outer loop
      vertex 104.865 15.8678 2
      vertex 100 19 2
      vertex 104.865 14.1322 2
    endloop
  endfacet
  facet normal 0 0 1
    outer loop
      vertex 96 13 2
      vertex 104.865 14.1322 2
      vertex 100 19 2
    endloop
  endfacet
  facet normal 0 0 1
    outer loop
      vertex 97 1 2
      vertex 106.222 13.0501 2
      vertex 97 4 2
    endloop
  endfacet
  facet normal 0 0 1
    outer loop
      vertex 106.222 13.0501 2
      vertex 97 1 2
      vertex 120 0 2
    endloop
  endfacet
  facet normal -0 0 1
    outer loop
      vertex 85 1 2
      vertex 120 0 2
      vertex 97 1 2
    endloop
  endfacet
  facet normal 0 0 1
    outer loop
      vertex 84 13 2
      vertex 80 10.2199 2
      vertex 84 10 2
    endloop
  endfacet
  facet normal 0 0 1
    outer loop
      vertex 84 10 2
      vertex 80 10.2199 2
      vertex 85 1 2
    endloop
  endfacet
  facet normal -0 0 1
    outer loop
      vertex 60 10.2199 2
      vertex 85 1 2
      vertex 80 10.2199 2
    endloop
  endfacet
  facet normal 0 0 1
    outer loop
      vertex 40 10.2199 2
      vertex 60 10.2199 2
      vertex 40 19 2
    endloop
  endfacet
  facet normal -0 0 1
    outer loop
      vertex 40 10.2199 2
      vertex 85 1 2
      vertex 60 10.2199 2
    endloop
  endfacet
  facet normal 0 0 1
    outer loop
      vertex 0 0 2
      vertex 40 10.2199 2
      vertex 20 10.2199 2
    endloop
  endfacet
  facet normal -0 0 1
    outer loop
      vertex 11.247 13.4363 2
      vertex 20 10.2199 2
      vertex 12 15 2
    endloop
  endfacet
  facet normal -0 0 1
    outer loop
      vertex 9.55496 13.0501 2
      vertex 20 10.2199 2
      vertex 11.247 13.4363 2
    endloop
  endfacet
  facet normal 0 0 1
    outer loop
      vertex 85 1 2
      vertex 0 0 2
      vertex 120 0 2
    endloop
  endfacet
  facet normal 0 0 1
    outer loop
      vertex 40 10.2199 2
      vertex 0 0 2
      vertex 85 1 2
    endloop
  endfacet
  facet normal 0 0 1
    outer loop
      vertex 9.55496 13.0501 2
      vertex 0 0 2
      vertex 20 10.2199 2
    endloop
  endfacet
  facet normal 0 0 1
    outer loop
      vertex 8.19806 14.1322 2
      vertex 0 0 2
      vertex 9.55496 13.0501 2
    endloop
  endfacet
  facet normal 0 0 1
    outer loop
      vertex 8.19806 15.8678 2
      vertex 0 0 2
      vertex 8.19806 14.1322 2
    endloop
  endfacet
  facet normal 0 0 1
    outer loop
      vertex 104.865 14.1322 2
      vertex 96 10 2
      vertex 97 4 2
    endloop
  endfacet
  facet normal 0 0 1
    outer loop
      vertex 96 10 2
      vertex 85 4 2
      vertex 97 4 2
    endloop
  endfacet
  facet normal 0 0 1
    outer loop
      vertex 85 4 2
      vertex 84 10 2
      vertex 85 1 2
    endloop
  endfacet
  facet normal -0 0 1
    outer loop
      vertex 84 10 2
      vertex 85 4 2
      vertex 96 10 2
    endloop
  endfacet
  facet normal 0 0 -1
    outer loop
      vertex 20 24 2
      vertex 21 91.5 2
      vertex 21 24 2
    endloop
  endfacet
  facet normal -0 0 -1
    outer loop
      vertex 21 91.5 2
      vertex 20 24 2
      vertex 20 91.5 2
    endloop
  endfacet
  facet normal -0 0 -1
    outer loop
      vertex 20 24 0
      vertex 9.55496 16.9499 0
      vertex 20 91.5 0
    endloop
  endfacet
  facet normal 0 0 -1
    outer loop
      vertex 20 91.5 0
      vertex 11.247 98.9363 0
      vertex 12 100.5 0
    endloop
  endfacet
  facet normal 0 0 -1
    outer loop
      vertex 9.55496 98.5501 0
      vertex 20 91.5 0
      vertex 9.55496 16.9499 0
    endloop
  endfacet
  facet normal 0 0 -1
    outer loop
      vertex 20 91.5 0
      vertex 9.55496 98.5501 0
      vertex 11.247 98.9363 0
    endloop
  endfacet
  facet normal 0 0 -1
    outer loop
      vertex 8.19806 15.8678 0
      vertex 9.55496 98.5501 0
      vertex 9.55496 16.9499 0
    endloop
  endfacet
  facet normal -0 0 -1
    outer loop
      vertex 9.55496 98.5501 0
      vertex 8.19806 15.8678 0
      vertex 8.19806 99.6322 0
    endloop
  endfacet
  facet normal 0 0 -1
    outer loop
      vertex 107.914 98.9363 0
      vertex 120 115.5 0
      vertex 107.914 16.5637 0
    endloop
  endfacet
  facet normal 0 0 -1
    outer loop
      vertex 120 115.5 0
      vertex 107.914 98.9363 0
      vertex 108.667 100.5 0
    endloop
  endfacet
  facet normal 0 0 -1
    outer loop
      vertex 100 24 0
      vertex 107.914 16.5637 0
      vertex 106.222 16.9499 0
    endloop
  endfacet
  facet normal 0 0 -1
    outer loop
      vertex 107.914 16.5637 0
      vertex 100 24 0
      vertex 107.914 98.9363 0
    endloop
  endfacet
  facet normal 0 0 -1
    outer loop
      vertex 100 24 0
      vertex 106.222 16.9499 0
      vertex 104.865 15.8678 0
    endloop
  endfacet
  facet normal 0 0 -1
    outer loop
      vertex 100 91.5 0
      vertex 107.914 98.9363 0
      vertex 100 24 0
    endloop
  endfacet
  facet normal 0 0 -1
    outer loop
      vertex 107.914 16.5637 0
      vertex 120 0 0
      vertex 108.667 15 0
    endloop
  endfacet
  facet normal 0 0 -1
    outer loop
      vertex 120 0 0
      vertex 107.914 13.4363 0
      vertex 108.667 15 0
    endloop
  endfacet
  facet normal 0 0 -1
    outer loop
      vertex 120 0 0
      vertex 106.222 13.0501 0
      vertex 107.914 13.4363 0
    endloop
  endfacet
  facet normal 0 0 -1
    outer loop
      vertex 0 0 0
      vertex 106.222 13.0501 0
      vertex 120 0 0
    endloop
  endfacet
  facet normal 0 0 -1
    outer loop
      vertex 100 24 0
      vertex 104.865 15.8678 0
      vertex 104.865 14.1322 0
    endloop
  endfacet
  facet normal 0 0 -1
    outer loop
      vertex 107.914 98.9363 0
      vertex 100 91.5 0
      vertex 106.222 98.5501 0
    endloop
  endfacet
  facet normal -0 0 -1
    outer loop
      vertex 106.222 98.5501 0
      vertex 100 91.5 0
      vertex 104.865 99.6322 0
    endloop
  endfacet
  facet normal 0 0 -1
    outer loop
      vertex 104.865 14.1322 0
      vertex 20 24 0
      vertex 100 24 0
    endloop
  endfacet
  facet normal -0 0 -1
    outer loop
      vertex 106.222 13.0501 0
      vertex 0 0 0
      vertex 104.865 14.1322 0
    endloop
  endfacet
  facet normal 0 0 -1
    outer loop
      vertex 11.247 16.5637 0
      vertex 20 24 0
      vertex 12 15 0
    endloop
  endfacet
  facet normal -0 0 -1
    outer loop
      vertex 104.865 14.1322 0
      vertex 11.247 13.4363 0
      vertex 20 24 0
    endloop
  endfacet
  facet normal 0 0 -1
    outer loop
      vertex 20 24 0
      vertex 11.247 13.4363 0
      vertex 12 15 0
    endloop
  endfacet
  facet normal 0 0 -1
    outer loop
      vertex 104.865 14.1322 0
      vertex 0 0 0
      vertex 11.247 13.4363 0
    endloop
  endfacet
  facet normal 0 0 -1
    outer loop
      vertex 0 0 0
      vertex 8.19806 15.8678 0
      vertex 8.19806 14.1322 0
    endloop
  endfacet
  facet normal -0 0 -1
    outer loop
      vertex 8.19806 15.8678 0
      vertex 0 0 0
      vertex 8.19806 99.6322 0
    endloop
  endfacet
  facet normal 0 0 -1
    outer loop
      vertex 0 115.5 0
      vertex 8.19806 99.6322 0
      vertex 0 0 0
    endloop
  endfacet
  facet normal -0 0 -1
    outer loop
      vertex 9.55496 13.0501 0
      vertex 0 0 0
      vertex 8.19806 14.1322 0
    endloop
  endfacet
  facet normal 0 0 -1
    outer loop
      vertex 11.247 13.4363 0
      vertex 0 0 0
      vertex 9.55496 13.0501 0
    endloop
  endfacet
  facet normal 0 0 -1
    outer loop
      vertex 120 0 0
      vertex 107.914 16.5637 0
      vertex 120 115.5 0
    endloop
  endfacet
  facet normal 0 0 -1
    outer loop
      vertex 107.914 102.064 0
      vertex 120 115.5 0
      vertex 108.667 100.5 0
    endloop
  endfacet
  facet normal 0 0 -1
    outer loop
      vertex 106.222 102.45 0
      vertex 120 115.5 0
      vertex 107.914 102.064 0
    endloop
  endfacet
  facet normal 0 0 -1
    outer loop
      vertex 0 115.5 0
      vertex 106.222 102.45 0
      vertex 104.865 101.368 0
    endloop
  endfacet
  facet normal -0 0 -1
    outer loop
      vertex 104.865 99.6322 0
      vertex 100 91.5 0
      vertex 104.865 101.368 0
    endloop
  endfacet
  facet normal 0 0 -1
    outer loop
      vertex 20 91.5 0
      vertex 104.865 101.368 0
      vertex 100 91.5 0
    endloop
  endfacet
  facet normal 0 0 -1
    outer loop
      vertex 11.247 102.064 0
      vertex 104.865 101.368 0
      vertex 20 91.5 0
    endloop
  endfacet
  facet normal 0 0 -1
    outer loop
      vertex 9.55496 16.9499 0
      vertex 20 24 0
      vertex 11.247 16.5637 0
    endloop
  endfacet
  facet normal 0 0 -1
    outer loop
      vertex 11.247 102.064 0
      vertex 20 91.5 0
      vertex 12 100.5 0
    endloop
  endfacet
  facet normal 0 0 -1
    outer loop
      vertex 0 115.5 0
      vertex 104.865 101.368 0
      vertex 11.247 102.064 0
    endloop
  endfacet
  facet normal 0 0 -1
    outer loop
      vertex 0 115.5 0
      vertex 11.247 102.064 0
      vertex 9.55496 102.45 0
    endloop
  endfacet
  facet normal 0 0 -1
    outer loop
      vertex 106.222 102.45 0
      vertex 0 115.5 0
      vertex 120 115.5 0
    endloop
  endfacet
  facet normal 0 0 -1
    outer loop
      vertex 8.19806 101.368 0
      vertex 0 115.5 0
      vertex 9.55496 102.45 0
    endloop
  endfacet
  facet normal 0 0 -1
    outer loop
      vertex 8.19806 99.6322 0
      vertex 0 115.5 0
      vertex 8.19806 101.368 0
    endloop
  endfacet
  facet normal -1 0 0
    outer loop
      vertex 0 0 0
      vertex 0 115.5 2
      vertex 0 115.5 0
    endloop
  endfacet
  facet normal -1 -0 0
    outer loop
      vertex 0 115.5 2
      vertex 0 0 0
      vertex 0 0 2
    endloop
  endfacet
  facet normal 0 1 -0
    outer loop
      vertex 120 115.5 0
      vertex 0 115.5 2
      vertex 120 115.5 2
    endloop
  endfacet
  facet normal 0 1 0
    outer loop
      vertex 0 115.5 2
      vertex 120 115.5 0
      vertex 0 115.5 0
    endloop
  endfacet
  facet normal 0 -1 0
    outer loop
      vertex 0 0 0
      vertex 120 0 2
      vertex 0 0 2
    endloop
  endfacet
  facet normal 0 -1 -0
    outer loop
      vertex 120 0 2
      vertex 0 0 0
      vertex 120 0 0
    endloop
  endfacet
  facet normal -1 0 0
    outer loop
      vertex 100 24 0
      vertex 100 91.5 2
      vertex 100 91.5 0
    endloop
  endfacet
  facet normal -1 -0 0
    outer loop
      vertex 100 91.5 2
      vertex 100 24 0
      vertex 100 24 2
    endloop
  endfacet
  facet normal 1 -0 0
    outer loop
      vertex 20 24 2
      vertex 20 91.5 0
      vertex 20 91.5 2
    endloop
  endfacet
  facet normal 1 0 0
    outer loop
      vertex 20 91.5 0
      vertex 20 24 2
      vertex 20 24 0
    endloop
  endfacet
  facet normal 0 -1 0
    outer loop
      vertex 20 91.5 0
      vertex 21 91.5 2
      vertex 20 91.5 2
    endloop
  endfacet
  facet normal 0 -1 0
    outer loop
      vertex 100 91.5 0
      vertex 21 91.5 2
      vertex 20 91.5 0
    endloop
  endfacet
  facet normal 0 -1 0
    outer loop
      vertex 21 91.5 2
      vertex 100 91.5 0
      vertex 100 91.5 2
    endloop
  endfacet
  facet normal 0 1 -0
    outer loop
      vertex 100 24 0
      vertex 21 24 2
      vertex 100 24 2
    endloop
  endfacet
  facet normal 0 1 0
    outer loop
      vertex 20 24 0
      vertex 21 24 2
      vertex 100 24 0
    endloop
  endfacet
  facet normal 0 1 0
    outer loop
      vertex 21 24 2
      vertex 20 24 0
      vertex 20 24 2
    endloop
  endfacet
  facet normal -0.222523 -0.974928 0
    outer loop
      vertex 9.55496 16.9499 0
      vertex 11.247 16.5637 2
      vertex 9.55496 16.9499 2
    endloop
  endfacet
  facet normal -0.222523 -0.974928 -0
    outer loop
      vertex 11.247 16.5637 2
      vertex 9.55496 16.9499 0
      vertex 11.247 16.5637 0
    endloop
  endfacet
  facet normal -0.900977 -0.433866 0
    outer loop
      vertex 12 15 0
      vertex 11.247 16.5637 2
      vertex 11.247 16.5637 0
    endloop
  endfacet
  facet normal -0.900977 -0.433866 0
    outer loop
      vertex 11.247 16.5637 2
      vertex 12 15 0
      vertex 12 15 2
    endloop
  endfacet
  facet normal -0.900977 0.433866 0
    outer loop
      vertex 11.247 13.4363 0
      vertex 12 15 2
      vertex 12 15 0
    endloop
  endfacet
  facet normal -0.900977 0.433866 0
    outer loop
      vertex 12 15 2
      vertex 11.247 13.4363 0
      vertex 11.247 13.4363 2
    endloop
  endfacet
  facet normal 0.623493 -0.781829 0
    outer loop
      vertex 8.19806 15.8678 0
      vertex 9.55496 16.9499 2
      vertex 8.19806 15.8678 2
    endloop
  endfacet
  facet normal 0.623493 -0.781829 0
    outer loop
      vertex 9.55496 16.9499 2
      vertex 8.19806 15.8678 0
      vertex 9.55496 16.9499 0
    endloop
  endfacet
  facet normal 0.623493 0.781829 -0
    outer loop
      vertex 9.55496 13.0501 0
      vertex 8.19806 14.1322 2
      vertex 9.55496 13.0501 2
    endloop
  endfacet
  facet normal 0.623493 0.781829 0
    outer loop
      vertex 8.19806 14.1322 2
      vertex 9.55496 13.0501 0
      vertex 8.19806 14.1322 0
    endloop
  endfacet
  facet normal -0.222523 0.974928 0
    outer loop
      vertex 11.247 13.4363 0
      vertex 9.55496 13.0501 2
      vertex 11.247 13.4363 2
    endloop
  endfacet
  facet normal -0.222523 0.974928 0
    outer loop
      vertex 9.55496 13.0501 2
      vertex 11.247 13.4363 0
      vertex 9.55496 13.0501 0
    endloop
  endfacet
  facet normal 1 -0 0
    outer loop
      vertex 8.19806 14.1322 2
      vertex 8.19806 15.8678 0
      vertex 8.19806 15.8678 2
    endloop
  endfacet
  facet normal 1 0 0
    outer loop
      vertex 8.19806 15.8678 0
      vertex 8.19806 14.1322 2
      vertex 8.19806 14.1322 0
    endloop
  endfacet
  facet normal -0.222413 -0.974953 0
    outer loop
      vertex 9.55496 102.45 0
      vertex 11.247 102.064 2
      vertex 9.55496 102.45 2
    endloop
  endfacet
  facet normal -0.222413 -0.974953 -0
    outer loop
      vertex 11.247 102.064 2
      vertex 9.55496 102.45 0
      vertex 11.247 102.064 0
    endloop
  endfacet
  facet normal -0.90101 -0.433798 0
    outer loop
      vertex 12 100.5 0
      vertex 11.247 102.064 2
      vertex 11.247 102.064 0
    endloop
  endfacet
  facet normal -0.90101 -0.433798 0
    outer loop
      vertex 11.247 102.064 2
      vertex 12 100.5 0
      vertex 12 100.5 2
    endloop
  endfacet
  facet normal -0.900977 0.433866 0
    outer loop
      vertex 11.247 98.9363 0
      vertex 12 100.5 2
      vertex 12 100.5 0
    endloop
  endfacet
  facet normal -0.900977 0.433866 0
    outer loop
      vertex 12 100.5 2
      vertex 11.247 98.9363 0
      vertex 11.247 98.9363 2
    endloop
  endfacet
  facet normal 0.623493 0.781829 -0
    outer loop
      vertex 9.55496 98.5501 0
      vertex 8.19806 99.6322 2
      vertex 9.55496 98.5501 2
    endloop
  endfacet
  facet normal 0.623493 0.781829 0
    outer loop
      vertex 8.19806 99.6322 2
      vertex 9.55496 98.5501 0
      vertex 8.19806 99.6322 0
    endloop
  endfacet
  facet normal -0.222523 0.974928 0
    outer loop
      vertex 11.247 98.9363 0
      vertex 9.55496 98.5501 2
      vertex 11.247 98.9363 2
    endloop
  endfacet
  facet normal -0.222523 0.974928 0
    outer loop
      vertex 9.55496 98.5501 2
      vertex 11.247 98.9363 0
      vertex 9.55496 98.5501 0
    endloop
  endfacet
  facet normal 1 -0 0
    outer loop
      vertex 8.19806 99.6322 2
      vertex 8.19806 101.368 0
      vertex 8.19806 101.368 2
    endloop
  endfacet
  facet normal 1 0 0
    outer loop
      vertex 8.19806 101.368 0
      vertex 8.19806 99.6322 2
      vertex 8.19806 99.6322 0
    endloop
  endfacet
  facet normal 0.623458 -0.781857 0
    outer loop
      vertex 8.19806 101.368 0
      vertex 9.55496 102.45 2
      vertex 8.19806 101.368 2
    endloop
  endfacet
  facet normal 0.623458 -0.781857 0
    outer loop
      vertex 9.55496 102.45 2
      vertex 8.19806 101.368 0
      vertex 9.55496 102.45 0
    endloop
  endfacet
  facet normal -0.222528 -0.974926 0
    outer loop
      vertex 106.222 16.9499 0
      vertex 107.914 16.5637 2
      vertex 106.222 16.9499 2
    endloop
  endfacet
  facet normal -0.222528 -0.974926 -0
    outer loop
      vertex 107.914 16.5637 2
      vertex 106.222 16.9499 0
      vertex 107.914 16.5637 0
    endloop
  endfacet
  facet normal -0.900977 -0.433866 0
    outer loop
      vertex 108.667 15 0
      vertex 107.914 16.5637 2
      vertex 107.914 16.5637 0
    endloop
  endfacet
  facet normal -0.900977 -0.433866 0
    outer loop
      vertex 107.914 16.5637 2
      vertex 108.667 15 0
      vertex 108.667 15 2
    endloop
  endfacet
  facet normal -0.900977 0.433866 0
    outer loop
      vertex 107.914 13.4363 0
      vertex 108.667 15 2
      vertex 108.667 15 0
    endloop
  endfacet
  facet normal -0.900977 0.433866 0
    outer loop
      vertex 108.667 15 2
      vertex 107.914 13.4363 0
      vertex 107.914 13.4363 2
    endloop
  endfacet
  facet normal 0.623465 -0.781852 0
    outer loop
      vertex 104.865 15.8678 0
      vertex 106.222 16.9499 2
      vertex 104.865 15.8678 2
    endloop
  endfacet
  facet normal 0.623465 -0.781852 0
    outer loop
      vertex 106.222 16.9499 2
      vertex 104.865 15.8678 0
      vertex 106.222 16.9499 0
    endloop
  endfacet
  facet normal 0.623465 0.781852 -0
    outer loop
      vertex 106.222 13.0501 0
      vertex 104.865 14.1322 2
      vertex 106.222 13.0501 2
    endloop
  endfacet
  facet normal 0.623465 0.781852 0
    outer loop
      vertex 104.865 14.1322 2
      vertex 106.222 13.0501 0
      vertex 104.865 14.1322 0
    endloop
  endfacet
  facet normal -0.222528 0.974926 0
    outer loop
      vertex 107.914 13.4363 0
      vertex 106.222 13.0501 2
      vertex 107.914 13.4363 2
    endloop
  endfacet
  facet normal -0.222528 0.974926 0
    outer loop
      vertex 106.222 13.0501 2
      vertex 107.914 13.4363 0
      vertex 106.222 13.0501 0
    endloop
  endfacet
  facet normal 1 -0 0
    outer loop
      vertex 104.865 14.1322 2
      vertex 104.865 15.8678 0
      vertex 104.865 15.8678 2
    endloop
  endfacet
  facet normal 1 0 0
    outer loop
      vertex 104.865 15.8678 0
      vertex 104.865 14.1322 2
      vertex 104.865 14.1322 0
    endloop
  endfacet
  facet normal -0.222418 -0.974951 0
    outer loop
      vertex 106.222 102.45 0
      vertex 107.914 102.064 2
      vertex 106.222 102.45 2
    endloop
  endfacet
  facet normal -0.222418 -0.974951 -0
    outer loop
      vertex 107.914 102.064 2
      vertex 106.222 102.45 0
      vertex 107.914 102.064 0
    endloop
  endfacet
  facet normal -0.90101 -0.433798 0
    outer loop
      vertex 108.667 100.5 0
      vertex 107.914 102.064 2
      vertex 107.914 102.064 0
    endloop
  endfacet
  facet normal -0.90101 -0.433798 0
    outer loop
      vertex 107.914 102.064 2
      vertex 108.667 100.5 0
      vertex 108.667 100.5 2
    endloop
  endfacet
  facet normal -0.900977 0.433866 0
    outer loop
      vertex 107.914 98.9363 0
      vertex 108.667 100.5 2
      vertex 108.667 100.5 0
    endloop
  endfacet
  facet normal -0.900977 0.433866 0
    outer loop
      vertex 108.667 100.5 2
      vertex 107.914 98.9363 0
      vertex 107.914 98.9363 2
    endloop
  endfacet
  facet normal 0.623429 -0.78188 0
    outer loop
      vertex 104.865 101.368 0
      vertex 106.222 102.45 2
      vertex 104.865 101.368 2
    endloop
  endfacet
  facet normal 0.623429 -0.78188 0
    outer loop
      vertex 106.222 102.45 2
      vertex 104.865 101.368 0
      vertex 106.222 102.45 0
    endloop
  endfacet
  facet normal 0.623465 0.781852 -0
    outer loop
      vertex 106.222 98.5501 0
      vertex 104.865 99.6322 2
      vertex 106.222 98.5501 2
    endloop
  endfacet
  facet normal 0.623465 0.781852 0
    outer loop
      vertex 104.865 99.6322 2
      vertex 106.222 98.5501 0
      vertex 104.865 99.6322 0
    endloop
  endfacet
  facet normal -0.222528 0.974926 0
    outer loop
      vertex 107.914 98.9363 0
      vertex 106.222 98.5501 2
      vertex 107.914 98.9363 2
    endloop
  endfacet
  facet normal -0.222528 0.974926 0
    outer loop
      vertex 106.222 98.5501 2
      vertex 107.914 98.9363 0
      vertex 106.222 98.5501 0
    endloop
  endfacet
  facet normal 1 -0 0
    outer loop
      vertex 104.865 99.6322 2
      vertex 104.865 101.368 0
      vertex 104.865 101.368 2
    endloop
  endfacet
  facet normal 1 0 0
    outer loop
      vertex 104.865 101.368 0
      vertex 104.865 99.6322 2
      vertex 104.865 99.6322 0
    endloop
  endfacet
  facet normal 1 -0 0
    outer loop
      vertex 21 89.5 8.5
      vertex 21 94.5 2
      vertex 21 94.5 40.5
    endloop
  endfacet
  facet normal 1 0 0
    outer loop
      vertex 21 89.5 8.5
      vertex 21 94.5 40.5
      vertex 21 89.5 34
    endloop
  endfacet
  facet normal 1 0 0
    outer loop
      vertex 21 94.5 40.5
      vertex 21 27 34
      vertex 21 89.5 34
    endloop
  endfacet
  facet normal 1 0 0
    outer loop
      vertex 21 21 2
      vertex 21 27 8.5
      vertex 21 27 34
    endloop
  endfacet
  facet normal 1 -0 0
    outer loop
      vertex 21 21 40.5
      vertex 21 27 34
      vertex 21 94.5 40.5
    endloop
  endfacet
  facet normal 1 0 0
    outer loop
      vertex 21 21 2
      vertex 21 27 34
      vertex 21 21 40.5
    endloop
  endfacet
  facet normal 1 0 0
    outer loop
      vertex 21 27 8.5
      vertex 21 21 2
      vertex 21 24 2
    endloop
  endfacet
  facet normal 1 0 0
    outer loop
      vertex 21 94.5 2
      vertex 21 89.5 8.5
      vertex 21 91.5 2
    endloop
  endfacet
  facet normal 1 -0 0
    outer loop
      vertex 21 27 8.5
      vertex 21 91.5 2
      vertex 21 89.5 8.5
    endloop
  endfacet
  facet normal 1 0 0
    outer loop
      vertex 21 91.5 2
      vertex 21 27 8.5
      vertex 21 24 2
    endloop
  endfacet
  facet normal 0 0 1
    outer loop
      vertex 100 96.5 42.5
      vertex 94 90.5 42.5
      vertex 100 19 42.5
    endloop
  endfacet
  facet normal 0 0 1
    outer loop
      vertex 100 96.5 42.5
      vertex 26 90.5 42.5
      vertex 94 90.5 42.5
    endloop
  endfacet
  facet normal 0 0 1
    outer loop
      vertex 26 90.5 42.5
      vertex 19 96.5 42.5
      vertex 26 25 42.5
    endloop
  endfacet
  facet normal -0 0 1
    outer loop
      vertex 19 96.5 42.5
      vertex 26 90.5 42.5
      vertex 100 96.5 42.5
    endloop
  endfacet
  facet normal -0 0 1
    outer loop
      vertex 94 25 42.5
      vertex 100 19 42.5
      vertex 94 90.5 42.5
    endloop
  endfacet
  facet normal -0 0 1
    outer loop
      vertex 26 25 42.5
      vertex 100 19 42.5
      vertex 94 25 42.5
    endloop
  endfacet
  facet normal 0 0 1
    outer loop
      vertex 26 25 42.5
      vertex 19 19 42.5
      vertex 100 19 42.5
    endloop
  endfacet
  facet normal 0 0 1
    outer loop
      vertex 19 19 42.5
      vertex 26 25 42.5
      vertex 19 96.5 42.5
    endloop
  endfacet
  facet normal -1 0 0
    outer loop
      vertex 19 91.5 2
      vertex 19 89.5 8.5
      vertex 19 91.5 34.7679
    endloop
  endfacet
  facet normal -1 0 0
    outer loop
      vertex 19 91.5 2
      vertex 19 27 8.5
      vertex 19 89.5 8.5
    endloop
  endfacet
  facet normal -1 0 0
    outer loop
      vertex 19 24 34.7679
      vertex 19 27 8.5
      vertex 19 24 2
    endloop
  endfacet
  facet normal -1 0 0
    outer loop
      vertex 19 24 2
      vertex 19 27 8.5
      vertex 19 91.5 2
    endloop
  endfacet
  facet normal -1 0 0
    outer loop
      vertex 19 91.5 34.7679
      vertex 19 96.5 42.5
      vertex 19 96.5 34.7679
    endloop
  endfacet
  facet normal -1 0 0
    outer loop
      vertex 19 89.5 34
      vertex 19 91.5 34.7679
      vertex 19 89.5 8.5
    endloop
  endfacet
  facet normal -1 0 0
    outer loop
      vertex 19 89.5 34
      vertex 19 96.5 42.5
      vertex 19 91.5 34.7679
    endloop
  endfacet
  facet normal -1 0 0
    outer loop
      vertex 19 27 34
      vertex 19 96.5 42.5
      vertex 19 89.5 34
    endloop
  endfacet
  facet normal -1 0 0
    outer loop
      vertex 19 27 8.5
      vertex 19 24 34.7679
      vertex 19 27 34
    endloop
  endfacet
  facet normal -1 0 0
    outer loop
      vertex 19 19 42.5
      vertex 19 27 34
      vertex 19 24 34.7679
    endloop
  endfacet
  facet normal -1 0 0
    outer loop
      vertex 19 19 42.5
      vertex 19 24 34.7679
      vertex 19 19 34.7679
    endloop
  endfacet
  facet normal -1 0 0
    outer loop
      vertex 19 27 34
      vertex 19 19 42.5
      vertex 19 96.5 42.5
    endloop
  endfacet
  facet normal 0 1 -0
    outer loop
      vertex 60 96.5 2
      vertex 40 96.5 34.7679
      vertex 60 96.5 34.7679
    endloop
  endfacet
  facet normal 0 1 0
    outer loop
      vertex 40 96.5 34.7679
      vertex 60 96.5 2
      vertex 40 96.5 2
    endloop
  endfacet
  facet normal 0 1 0
    outer loop
      vertex 60 96.5 34.7679
      vertex 100 96.5 42.5
      vertex 80 96.5 34.7679
    endloop
  endfacet
  facet normal 0 1 -0
    outer loop
      vertex 100 96.5 2
      vertex 80 96.5 34.7679
      vertex 100 96.5 42.5
    endloop
  endfacet
  facet normal 0 1 0
    outer loop
      vertex 80 96.5 34.7679
      vertex 100 96.5 2
      vertex 80 96.5 2
    endloop
  endfacet
  facet normal 0 1 0
    outer loop
      vertex 100 96.5 42.5
      vertex 60 96.5 34.7679
      vertex 19 96.5 42.5
    endloop
  endfacet
  facet normal 0 1 -0
    outer loop
      vertex 40 96.5 34.7679
      vertex 19 96.5 42.5
      vertex 60 96.5 34.7679
    endloop
  endfacet
  facet normal 0 1 -0
    outer loop
      vertex 20 96.5 34.7679
      vertex 19 96.5 42.5
      vertex 40 96.5 34.7679
    endloop
  endfacet
  facet normal 0 1 0
    outer loop
      vertex 20 96.5 34.7679
      vertex 19 96.5 34.7679
      vertex 19 96.5 42.5
    endloop
  endfacet
  facet normal 0 1 -0
    outer loop
      vertex 20 96.5 2
      vertex 19 96.5 34.7679
      vertex 20 96.5 34.7679
    endloop
  endfacet
  facet normal 0 1 0
    outer loop
      vertex 19 96.5 34.7679
      vertex 20 96.5 2
      vertex 10.2199 96.5 2
    endloop
  endfacet
  facet normal 0 -1 0
    outer loop
      vertex 40 19 2
      vertex 60 19 34.7679
      vertex 40 19 34.7679
    endloop
  endfacet
  facet normal 0 -1 -0
    outer loop
      vertex 60 19 34.7679
      vertex 40 19 2
      vertex 60 19 2
    endloop
  endfacet
  facet normal 0 -1 0
    outer loop
      vertex 20 19 2
      vertex 19 19 34.7679
      vertex 10.2199 19 2
    endloop
  endfacet
  facet normal 0 -1 0
    outer loop
      vertex 19 19 34.7679
      vertex 20 19 2
      vertex 20 19 34.7679
    endloop
  endfacet
  facet normal 0 -1 0
    outer loop
      vertex 20 19 34.7679
      vertex 19 19 42.5
      vertex 19 19 34.7679
    endloop
  endfacet
  facet normal 0 -1 0
    outer loop
      vertex 40 19 34.7679
      vertex 19 19 42.5
      vertex 20 19 34.7679
    endloop
  endfacet
  facet normal 0 -1 0
    outer loop
      vertex 60 19 34.7679
      vertex 19 19 42.5
      vertex 40 19 34.7679
    endloop
  endfacet
  facet normal 0 -1 0
    outer loop
      vertex 19 19 42.5
      vertex 60 19 34.7679
      vertex 100 19 42.5
    endloop
  endfacet
  facet normal 0 -1 0
    outer loop
      vertex 80 19 34.7679
      vertex 100 19 42.5
      vertex 60 19 34.7679
    endloop
  endfacet
  facet normal 0 -1 0
    outer loop
      vertex 100 19 2
      vertex 80 19 34.7679
      vertex 80 19 2
    endloop
  endfacet
  facet normal 0 -1 0
    outer loop
      vertex 80 19 34.7679
      vertex 100 19 2
      vertex 100 19 42.5
    endloop
  endfacet
  facet normal 0 0 -1
    outer loop
      vertex 19 27 34
      vertex 21 89.5 34
      vertex 21 27 34
    endloop
  endfacet
  facet normal -0 0 -1
    outer loop
      vertex 21 89.5 34
      vertex 19 27 34
      vertex 19 89.5 34
    endloop
  endfacet
  facet normal -0 0 1
    outer loop
      vertex 19 89.5 8.5
      vertex 21 27 8.5
      vertex 21 89.5 8.5
    endloop
  endfacet
  facet normal 0 0 1
    outer loop
      vertex 21 27 8.5
      vertex 19 89.5 8.5
      vertex 19 27 8.5
    endloop
  endfacet
  facet normal 0 -1 0
    outer loop
      vertex 19 89.5 8.5
      vertex 21 89.5 34
      vertex 19 89.5 34
    endloop
  endfacet
  facet normal 0 -1 -0
    outer loop
      vertex 21 89.5 34
      vertex 19 89.5 8.5
      vertex 21 89.5 8.5
    endloop
  endfacet
  facet normal 0 1 -0
    outer loop
      vertex 21 27 8.5
      vertex 19 27 34
      vertex 21 27 34
    endloop
  endfacet
  facet normal 0 1 0
    outer loop
      vertex 19 27 34
      vertex 21 27 8.5
      vertex 19 27 8.5
    endloop
  endfacet
  facet normal 1 0 0
    outer loop
      vertex 100 96.5 42.5
      vertex 100 94.5 40.5
      vertex 100 96.5 2
    endloop
  endfacet
  facet normal 1 0 0
    outer loop
      vertex 100 96.5 42.5
      vertex 100 21 40.5
      vertex 100 94.5 40.5
    endloop
  endfacet
  facet normal 1 -0 0
    outer loop
      vertex 100 19 42.5
      vertex 100 21 40.5
      vertex 100 96.5 42.5
    endloop
  endfacet
  facet normal 1 0 0
    outer loop
      vertex 100 19 2
      vertex 100 21 40.5
      vertex 100 19 42.5
    endloop
  endfacet
  facet normal 1 0 0
    outer loop
      vertex 100 21 40.5
      vertex 100 19 2
      vertex 100 21 2
    endloop
  endfacet
  facet normal 1 0 0
    outer loop
      vertex 100 96.5 2
      vertex 100 94.5 40.5
      vertex 100 94.5 2
    endloop
  endfacet
  facet normal 0 0 -1
    outer loop
      vertex 100 21 40.5
      vertex 94 25 40.5
      vertex 100 94.5 40.5
    endloop
  endfacet
  facet normal 0 0 -1
    outer loop
      vertex 21 21 40.5
      vertex 94 25 40.5
      vertex 100 21 40.5
    endloop
  endfacet
  facet normal -0 0 -1
    outer loop
      vertex 26 25 40.5
      vertex 21 21 40.5
      vertex 26 90.5 40.5
    endloop
  endfacet
  facet normal -0 0 -1
    outer loop
      vertex 94 25 40.5
      vertex 21 21 40.5
      vertex 26 25 40.5
    endloop
  endfacet
  facet normal 0 0 -1
    outer loop
      vertex 94 90.5 40.5
      vertex 100 94.5 40.5
      vertex 94 25 40.5
    endloop
  endfacet
  facet normal 0 0 -1
    outer loop
      vertex 21 94.5 40.5
      vertex 94 90.5 40.5
      vertex 26 90.5 40.5
    endloop
  endfacet
  facet normal 0 0 -1
    outer loop
      vertex 94 90.5 40.5
      vertex 21 94.5 40.5
      vertex 100 94.5 40.5
    endloop
  endfacet
  facet normal 0 0 -1
    outer loop
      vertex 21 94.5 40.5
      vertex 26 90.5 40.5
      vertex 21 21 40.5
    endloop
  endfacet
  facet normal -1 0 0
    outer loop
      vertex 94 25 40.5
      vertex 94 90.5 42.5
      vertex 94 90.5 40.5
    endloop
  endfacet
  facet normal -1 -0 0
    outer loop
      vertex 94 90.5 42.5
      vertex 94 25 40.5
      vertex 94 25 42.5
    endloop
  endfacet
  facet normal 1 -0 0
    outer loop
      vertex 26 25 42.5
      vertex 26 90.5 40.5
      vertex 26 90.5 42.5
    endloop
  endfacet
  facet normal 1 0 0
    outer loop
      vertex 26 90.5 40.5
      vertex 26 25 42.5
      vertex 26 25 40.5
    endloop
  endfacet
  facet normal 0 -1 0
    outer loop
      vertex 26 90.5 40.5
      vertex 94 90.5 42.5
      vertex 26 90.5 42.5
    endloop
  endfacet
  facet normal 0 -1 -0
    outer loop
      vertex 94 90.5 42.5
      vertex 26 90.5 40.5
      vertex 94 90.5 40.5
    endloop
  endfacet
  facet normal 0 1 -0
    outer loop
      vertex 94 25 40.5
      vertex 26 25 42.5
      vertex 94 25 42.5
    endloop
  endfacet
  facet normal 0 1 0
    outer loop
      vertex 26 25 42.5
      vertex 94 25 40.5
      vertex 26 25 40.5
    endloop
  endfacet
  facet normal 0 1 -0
    outer loop
      vertex 100 21 2
      vertex 21 21 40.5
      vertex 100 21 40.5
    endloop
  endfacet
  facet normal 0 1 0
    outer loop
      vertex 21 21 40.5
      vertex 100 21 2
      vertex 21 21 2
    endloop
  endfacet
  facet normal 0 -1 0
    outer loop
      vertex 21 94.5 2
      vertex 100 94.5 40.5
      vertex 21 94.5 40.5
    endloop
  endfacet
  facet normal 0 -1 -0
    outer loop
      vertex 100 94.5 40.5
      vertex 21 94.5 2
      vertex 100 94.5 2
    endloop
  endfacet
  facet normal 1 0 0
    outer loop
      vertex 40 19 34.7679
      vertex 40 10.2199 2
      vertex 40 19 2
    endloop
  endfacet
  facet normal -1 0 0
    outer loop
      vertex 20 19 2
      vertex 20 10.2199 2
      vertex 20 19 34.7679
    endloop
  endfacet
  facet normal 0 -0.965926 0.258818
    outer loop
      vertex 20 10.2199 2
      vertex 40 19 34.7679
      vertex 20 19 34.7679
    endloop
  endfacet
  facet normal 0 -0.965926 0.258818
    outer loop
      vertex 40 19 34.7679
      vertex 20 10.2199 2
      vertex 40 10.2199 2
    endloop
  endfacet
  facet normal 1 0 0
    outer loop
      vertex 80 19 34.7679
      vertex 80 10.2199 2
      vertex 80 19 2
    endloop
  endfacet
  facet normal -1 0 0
    outer loop
      vertex 60 19 2
      vertex 60 10.2199 2
      vertex 60 19 34.7679
    endloop
  endfacet
  facet normal 0 -0.965926 0.258818
    outer loop
      vertex 60 10.2199 2
      vertex 80 19 34.7679
      vertex 60 19 34.7679
    endloop
  endfacet
  facet normal 0 -0.965926 0.258818
    outer loop
      vertex 80 19 34.7679
      vertex 60 10.2199 2
      vertex 80 10.2199 2
    endloop
  endfacet
  facet normal 1 0 0
    outer loop
      vertex 40 105.28 2
      vertex 40 96.5 34.7679
      vertex 40 96.5 2
    endloop
  endfacet
  facet normal -1 0 0
    outer loop
      vertex 20 96.5 34.7679
      vertex 20 105.28 2
      vertex 20 96.5 2
    endloop
  endfacet
  facet normal 0 0.965927 0.258815
    outer loop
      vertex 40 105.28 2
      vertex 20 96.5 34.7679
      vertex 40 96.5 34.7679
    endloop
  endfacet
  facet normal 0 0.965927 0.258815
    outer loop
      vertex 20 96.5 34.7679
      vertex 40 105.28 2
      vertex 20 105.28 2
    endloop
  endfacet
  facet normal 1 0 0
    outer loop
      vertex 80 105.28 2
      vertex 80 96.5 34.7679
      vertex 80 96.5 2
    endloop
  endfacet
  facet normal -1 0 0
    outer loop
      vertex 60 96.5 34.7679
      vertex 60 105.28 2
      vertex 60 96.5 2
    endloop
  endfacet
  facet normal 0 0.965927 0.258815
    outer loop
      vertex 80 105.28 2
      vertex 60 96.5 34.7679
      vertex 80 96.5 34.7679
    endloop
  endfacet
  facet normal 0 0.965927 0.258815
    outer loop
      vertex 60 96.5 34.7679
      vertex 80 105.28 2
      vertex 60 105.28 2
    endloop
  endfacet
  facet normal 0 1 -0
    outer loop
      vertex 19 24 2
      vertex 10.2199 24 2
      vertex 19 24 34.7679
    endloop
  endfacet
  facet normal -0.965926 0 0.258818
    outer loop
      vertex 10.2199 19 2
      vertex 19 24 34.7679
      vertex 10.2199 24 2
    endloop
  endfacet
  facet normal -0.965926 0 0.258818
    outer loop
      vertex 19 24 34.7679
      vertex 10.2199 19 2
      vertex 19 19 34.7679
    endloop
  endfacet
  facet normal 0 -1 -0
    outer loop
      vertex 19 91.5 34.7679
      vertex 10.2199 91.5 2
      vertex 19 91.5 2
    endloop
  endfacet
  facet normal -0.965926 0 0.258818
    outer loop
      vertex 10.2199 91.5 2
      vertex 19 96.5 34.7679
      vertex 10.2199 96.5 2
    endloop
  endfacet
  facet normal -0.965926 0 0.258818
    outer loop
      vertex 19 96.5 34.7679
      vertex 10.2199 91.5 2
      vertex 19 91.5 34.7679
    endloop
  endfacet
  facet normal 1 -0 0
    outer loop
      vertex 96 10 14.25
      vertex 96 13 2
      vertex 96 13 14.25
    endloop
  endfacet
  facet normal 1 0 0
    outer loop
      vertex 96 13 2
      vertex 96 10 14.25
      vertex 96 10 2
    endloop
  endfacet
  facet normal -0 0 1
    outer loop
      vertex 84 13 19.25
      vertex 102 10 19.25
      vertex 102 13 19.25
    endloop
  endfacet
  facet normal 0 0 1
    outer loop
      vertex 102 10 19.25
      vertex 84 13 19.25
      vertex 84 10 19.25
    endloop
  endfacet
  facet normal -1 0 0
    outer loop
      vertex 84 10 2
      vertex 84 13 19.25
      vertex 84 13 2
    endloop
  endfacet
  facet normal -1 -0 0
    outer loop
      vertex 84 13 19.25
      vertex 84 10 2
      vertex 84 10 19.25
    endloop
  endfacet
  facet normal 0 1 0
    outer loop
      vertex 96 13 14.25
      vertex 102 13 19.25
      vertex 102 13 14.25
    endloop
  endfacet
  facet normal 0 1 0
    outer loop
      vertex 102 13 19.25
      vertex 96 13 14.25
      vertex 84 13 19.25
    endloop
  endfacet
  facet normal 0 1 0
    outer loop
      vertex 84 13 2
      vertex 96 13 14.25
      vertex 96 13 2
    endloop
  endfacet
  facet normal 0 1 0
    outer loop
      vertex 96 13 14.25
      vertex 84 13 2
      vertex 84 13 19.25
    endloop
  endfacet
  facet normal 0 -1 0
    outer loop
      vertex 84 10 19.25
      vertex 96 10 14.25
      vertex 102 10 19.25
    endloop
  endfacet
  facet normal 0 -1 0
    outer loop
      vertex 84 10 2
      vertex 96 10 14.25
      vertex 84 10 19.25
    endloop
  endfacet
  facet normal 0 -1 -0
    outer loop
      vertex 96 10 14.25
      vertex 84 10 2
      vertex 96 10 2
    endloop
  endfacet
  facet normal 0 -1 -0
    outer loop
      vertex 102 10 19.25
      vertex 96 10 14.25
      vertex 102 10 14.25
    endloop
  endfacet
  facet normal 1 -0 0
    outer loop
      vertex 97 1 14.25
      vertex 97 4 2
      vertex 97 4 14.25
    endloop
  endfacet
  facet normal 1 0 0
    outer loop
      vertex 97 4 2
      vertex 97 1 14.25
      vertex 97 1 2
    endloop
  endfacet
  facet normal -0 0 1
    outer loop
      vertex 85 4 19.25
      vertex 102 1 19.25
      vertex 102 4 19.25
    endloop
  endfacet
  facet normal 0 0 1
    outer loop
      vertex 102 1 19.25
      vertex 85 4 19.25
      vertex 85 1 19.25
    endloop
  endfacet
  facet normal -1 0 0
    outer loop
      vertex 85 1 2
      vertex 85 4 19.25
      vertex 85 4 2
    endloop
  endfacet
  facet normal -1 -0 0
    outer loop
      vertex 85 4 19.25
      vertex 85 1 2
      vertex 85 1 19.25
    endloop
  endfacet
  facet normal 0 1 0
    outer loop
      vertex 97 4 14.25
      vertex 102 4 19.25
      vertex 102 4 14.25
    endloop
  endfacet
  facet normal 0 1 0
    outer loop
      vertex 102 4 19.25
      vertex 97 4 14.25
      vertex 85 4 19.25
    endloop
  endfacet
  facet normal 0 1 0
    outer loop
      vertex 85 4 2
      vertex 97 4 14.25
      vertex 97 4 2
    endloop
  endfacet
  facet normal 0 1 0
    outer loop
      vertex 97 4 14.25
      vertex 85 4 2
      vertex 85 4 19.25
    endloop
  endfacet
  facet normal 0 -1 0
    outer loop
      vertex 85 1 19.25
      vertex 97 1 14.25
      vertex 102 1 19.25
    endloop
  endfacet
  facet normal 0 -1 0
    outer loop
      vertex 85 1 2
      vertex 97 1 14.25
      vertex 85 1 19.25
    endloop
  endfacet
  facet normal 0 -1 -0
    outer loop
      vertex 97 1 14.25
      vertex 85 1 2
      vertex 97 1 2
    endloop
  endfacet
  facet normal 0 -1 -0
    outer loop
      vertex 102 1 19.25
      vertex 97 1 14.25
      vertex 102 1 14.25
    endloop
  endfacet
  facet normal 1 -0 0
    outer loop
      vertex 102 10 19.25
      vertex 102 13 14.25
      vertex 102 13 19.25
    endloop
  endfacet
  facet normal 1 0 0
    outer loop
      vertex 102 13 14.25
      vertex 102 10 19.25
      vertex 102 10 14.25
    endloop
  endfacet
  facet normal 0 0 -1
    outer loop
      vertex 96 10 14.25
      vertex 102 13 14.25
      vertex 102 10 14.25
    endloop
  endfacet
  facet normal -0 0 -1
    outer loop
      vertex 102 13 14.25
      vertex 96 10 14.25
      vertex 96 13 14.25
    endloop
  endfacet
  facet normal 1 -0 0
    outer loop
      vertex 102 1 19.25
      vertex 102 4 14.25
      vertex 102 4 19.25
    endloop
  endfacet
  facet normal 1 0 0
    outer loop
      vertex 102 4 14.25
      vertex 102 1 19.25
      vertex 102 1 14.25
    endloop
  endfacet
  facet normal 0 0 -1
    outer loop
      vertex 97 1 14.25
      vertex 102 4 14.25
      vertex 102 1 14.25
    endloop
  endfacet
  facet normal -0 0 -1
    outer loop
      vertex 102 4 14.25
      vertex 97 1 14.25
      vertex 97 4 14.25
    endloop
  endfacet
endsolid OpenSCAD_Model
