solid OpenSCAD_Model
  facet normal 1 -0 0
    outer loop
      vertex 125 0 2
      vertex 125 128.5 0
      vertex 125 128.5 2
    endloop
  endfacet
  facet normal 1 0 0
    outer loop
      vertex 125 128.5 0
      vertex 125 0 2
      vertex 125 0 0
    endloop
  endfacet
  facet normal 0 0 1
    outer loop
      vertex 20 19 2
      vertex 12 15 2
      vertex 20 6.60254 2
    endloop
  endfacet
  facet normal 0 0 1
    outer loop
      vertex 20 19 2
      vertex 11.247 16.5637 2
      vertex 12 15 2
    endloop
  endfacet
  facet normal -0 0 1
    outer loop
      vertex 10 19 2
      vertex 11.247 16.5637 2
      vertex 20 19 2
    endloop
  endfacet
  facet normal 0 0 1
    outer loop
      vertex 10 19 2
      vertex 9.55496 16.9499 2
      vertex 11.247 16.5637 2
    endloop
  endfacet
  facet normal 0 0 1
    outer loop
      vertex 10 24 2
      vertex 9.55496 16.9499 2
      vertex 10 19 2
    endloop
  endfacet
  facet normal 0 0 1
    outer loop
      vertex 10 104.5 2
      vertex 0 128.5 2
      vertex 10 24 2
    endloop
  endfacet
  facet normal 0 0 1
    outer loop
      vertex 10 24 2
      vertex 8.19806 15.8678 2
      vertex 9.55496 16.9499 2
    endloop
  endfacet
  facet normal 0 0 1
    outer loop
      vertex 60 19 2
      vertex 40 19 2
      vertex 60 6.60254 2
    endloop
  endfacet
  facet normal 0 0 1
    outer loop
      vertex 105 109.5 2
      vertex 80 121.897 2
      vertex 80 109.5 2
    endloop
  endfacet
  facet normal 0 0 1
    outer loop
      vertex 60 109.5 2
      vertex 40 121.897 2
      vertex 40 109.5 2
    endloop
  endfacet
  facet normal -0 0 1
    outer loop
      vertex 11.247 111.936 2
      vertex 20 109.5 2
      vertex 12 113.5 2
    endloop
  endfacet
  facet normal 0 0 1
    outer loop
      vertex 11.247 111.936 2
      vertex 10 109.5 2
      vertex 20 109.5 2
    endloop
  endfacet
  facet normal 0 0 1
    outer loop
      vertex 8.19806 112.632 2
      vertex 10 109.5 2
      vertex 9.55496 111.55 2
    endloop
  endfacet
  facet normal 0 0 1
    outer loop
      vertex 10 109.5 2
      vertex 8.19806 112.632 2
      vertex 10 104.5 2
    endloop
  endfacet
  facet normal 0 0 1
    outer loop
      vertex 0 128.5 2
      vertex 10 104.5 2
      vertex 8.19806 112.632 2
    endloop
  endfacet
  facet normal -0 0 1
    outer loop
      vertex 9.55496 111.55 2
      vertex 10 109.5 2
      vertex 11.247 111.936 2
    endloop
  endfacet
  facet normal -0 0 1
    outer loop
      vertex 10 104.5 2
      vertex 19 24 2
      vertex 19 104.5 2
    endloop
  endfacet
  facet normal 0 0 1
    outer loop
      vertex 19 24 2
      vertex 10 104.5 2
      vertex 10 24 2
    endloop
  endfacet
  facet normal 0 0 1
    outer loop
      vertex 96 9 2
      vertex 109.865 14.1322 2
      vertex 96 12 2
    endloop
  endfacet
  facet normal -0 0 1
    outer loop
      vertex 80 19 2
      vertex 96 12 2
      vertex 105 19 2
    endloop
  endfacet
  facet normal 0 0 1
    outer loop
      vertex 80 6.60254 2
      vertex 84 12 2
      vertex 80 19 2
    endloop
  endfacet
  facet normal 0 0 1
    outer loop
      vertex 96 12 2
      vertex 80 19 2
      vertex 84 12 2
    endloop
  endfacet
  facet normal -0 0 1
    outer loop
      vertex 21 24 2
      vertex 105 21 2
      vertex 105 24 2
    endloop
  endfacet
  facet normal 0 0 1
    outer loop
      vertex 105 21 2
      vertex 21 24 2
      vertex 21 21 2
    endloop
  endfacet
  facet normal -0 0 1
    outer loop
      vertex 21 107.5 2
      vertex 105 104.5 2
      vertex 105 107.5 2
    endloop
  endfacet
  facet normal 0 0 1
    outer loop
      vertex 105 104.5 2
      vertex 21 107.5 2
      vertex 21 104.5 2
    endloop
  endfacet
  facet normal -0 0 1
    outer loop
      vertex 112.914 16.5637 2
      vertex 125 0 2
      vertex 112.914 111.936 2
    endloop
  endfacet
  facet normal 0 0 1
    outer loop
      vertex 125 0 2
      vertex 112.914 16.5637 2
      vertex 113.667 15 2
    endloop
  endfacet
  facet normal 0 0 1
    outer loop
      vertex 105 104.5 2
      vertex 112.914 111.936 2
      vertex 111.222 111.55 2
    endloop
  endfacet
  facet normal 0 0 1
    outer loop
      vertex 112.914 111.936 2
      vertex 105 104.5 2
      vertex 112.914 16.5637 2
    endloop
  endfacet
  facet normal 0 0 1
    outer loop
      vertex 105 109.5 2
      vertex 111.222 111.55 2
      vertex 109.865 112.632 2
    endloop
  endfacet
  facet normal -0 0 1
    outer loop
      vertex 105 24 2
      vertex 112.914 16.5637 2
      vertex 105 104.5 2
    endloop
  endfacet
  facet normal 0 0 1
    outer loop
      vertex 112.914 111.936 2
      vertex 125 128.5 2
      vertex 113.667 113.5 2
    endloop
  endfacet
  facet normal 0 0 1
    outer loop
      vertex 125 128.5 2
      vertex 112.914 115.064 2
      vertex 113.667 113.5 2
    endloop
  endfacet
  facet normal 0 0 1
    outer loop
      vertex 125 128.5 2
      vertex 111.222 115.45 2
      vertex 112.914 115.064 2
    endloop
  endfacet
  facet normal -0 0 1
    outer loop
      vertex 80 121.897 2
      vertex 111.222 115.45 2
      vertex 125 128.5 2
    endloop
  endfacet
  facet normal 0 0 1
    outer loop
      vertex 105 109.5 2
      vertex 109.865 112.632 2
      vertex 109.865 114.368 2
    endloop
  endfacet
  facet normal 0 0 1
    outer loop
      vertex 112.914 16.5637 2
      vertex 105 24 2
      vertex 111.222 16.9499 2
    endloop
  endfacet
  facet normal 0 0 1
    outer loop
      vertex 111.222 111.55 2
      vertex 105 109.5 2
      vertex 105 107.5 2
    endloop
  endfacet
  facet normal 0 0 1
    outer loop
      vertex 109.865 114.368 2
      vertex 80 121.897 2
      vertex 105 109.5 2
    endloop
  endfacet
  facet normal 0 0 1
    outer loop
      vertex 111.222 115.45 2
      vertex 80 121.897 2
      vertex 109.865 114.368 2
    endloop
  endfacet
  facet normal 0 0 1
    outer loop
      vertex 125 128.5 2
      vertex 60 121.897 2
      vertex 80 121.897 2
    endloop
  endfacet
  facet normal 0 0 1
    outer loop
      vertex 60 121.897 2
      vertex 40 121.897 2
      vertex 60 109.5 2
    endloop
  endfacet
  facet normal -0 0 1
    outer loop
      vertex 0 128.5 2
      vertex 60 121.897 2
      vertex 125 128.5 2
    endloop
  endfacet
  facet normal 0 0 1
    outer loop
      vertex 60 121.897 2
      vertex 0 128.5 2
      vertex 40 121.897 2
    endloop
  endfacet
  facet normal 0 0 1
    outer loop
      vertex 20 121.897 2
      vertex 12 113.5 2
      vertex 20 109.5 2
    endloop
  endfacet
  facet normal 0 0 1
    outer loop
      vertex 20 121.897 2
      vertex 11.247 115.064 2
      vertex 12 113.5 2
    endloop
  endfacet
  facet normal 0 0 1
    outer loop
      vertex 20 121.897 2
      vertex 9.55496 115.45 2
      vertex 11.247 115.064 2
    endloop
  endfacet
  facet normal 0 0 1
    outer loop
      vertex 0 128.5 2
      vertex 8.19806 112.632 2
      vertex 8.19806 114.368 2
    endloop
  endfacet
  facet normal 0 0 1
    outer loop
      vertex 0 0 2
      vertex 10 24 2
      vertex 0 128.5 2
    endloop
  endfacet
  facet normal 0 0 1
    outer loop
      vertex 10 24 2
      vertex 0 0 2
      vertex 8.19806 15.8678 2
    endloop
  endfacet
  facet normal 0 0 1
    outer loop
      vertex 9.55496 115.45 2
      vertex 0 128.5 2
      vertex 8.19806 114.368 2
    endloop
  endfacet
  facet normal 0 0 1
    outer loop
      vertex 20 121.897 2
      vertex 0 128.5 2
      vertex 9.55496 115.45 2
    endloop
  endfacet
  facet normal 0 0 1
    outer loop
      vertex 40 121.897 2
      vertex 0 128.5 2
      vertex 20 121.897 2
    endloop
  endfacet
  facet normal 0 0 1
    outer loop
      vertex 125 128.5 2
      vertex 112.914 111.936 2
      vertex 125 0 2
    endloop
  endfacet
  facet normal -0 0 1
    outer loop
      vertex 112.914 13.4363 2
      vertex 125 0 2
      vertex 113.667 15 2
    endloop
  endfacet
  facet normal -0 0 1
    outer loop
      vertex 111.222 13.0501 2
      vertex 125 0 2
      vertex 112.914 13.4363 2
    endloop
  endfacet
  facet normal 0 0 1
    outer loop
      vertex 97 5 2
      vertex 111.222 13.0501 2
      vertex 109.865 14.1322 2
    endloop
  endfacet
  facet normal 0 0 1
    outer loop
      vertex 111.222 111.55 2
      vertex 105 107.5 2
      vertex 105 104.5 2
    endloop
  endfacet
  facet normal -0 0 1
    outer loop
      vertex 105 21 2
      vertex 111.222 16.9499 2
      vertex 105 24 2
    endloop
  endfacet
  facet normal -0 0 1
    outer loop
      vertex 105 19 2
      vertex 111.222 16.9499 2
      vertex 105 21 2
    endloop
  endfacet
  facet normal 0 0 1
    outer loop
      vertex 111.222 16.9499 2
      vertex 105 19 2
      vertex 109.865 15.8678 2
    endloop
  endfacet
  facet normal 0 0 1
    outer loop
      vertex 109.865 15.8678 2
      vertex 105 19 2
      vertex 109.865 14.1322 2
    endloop
  endfacet
  facet normal 0 0 1
    outer loop
      vertex 96 12 2
      vertex 109.865 14.1322 2
      vertex 105 19 2
    endloop
  endfacet
  facet normal 0 0 1
    outer loop
      vertex 111.222 13.0501 2
      vertex 97 5 2
      vertex 97 2 2
    endloop
  endfacet
  facet normal 0 0 1
    outer loop
      vertex 111.222 13.0501 2
      vertex 97 2 2
      vertex 125 0 2
    endloop
  endfacet
  facet normal -0 0 1
    outer loop
      vertex 85 2 2
      vertex 125 0 2
      vertex 97 2 2
    endloop
  endfacet
  facet normal 0 0 1
    outer loop
      vertex 84 12 2
      vertex 80 6.60254 2
      vertex 84 9 2
    endloop
  endfacet
  facet normal 0 0 1
    outer loop
      vertex 84 9 2
      vertex 80 6.60254 2
      vertex 85 2 2
    endloop
  endfacet
  facet normal -0 0 1
    outer loop
      vertex 60 6.60254 2
      vertex 85 2 2
      vertex 80 6.60254 2
    endloop
  endfacet
  facet normal 0 0 1
    outer loop
      vertex 40 6.60254 2
      vertex 60 6.60254 2
      vertex 40 19 2
    endloop
  endfacet
  facet normal -0 0 1
    outer loop
      vertex 40 6.60254 2
      vertex 85 2 2
      vertex 60 6.60254 2
    endloop
  endfacet
  facet normal 0 0 1
    outer loop
      vertex 0 0 2
      vertex 40 6.60254 2
      vertex 20 6.60254 2
    endloop
  endfacet
  facet normal -0 0 1
    outer loop
      vertex 11.247 13.4363 2
      vertex 20 6.60254 2
      vertex 12 15 2
    endloop
  endfacet
  facet normal -0 0 1
    outer loop
      vertex 9.55496 13.0501 2
      vertex 20 6.60254 2
      vertex 11.247 13.4363 2
    endloop
  endfacet
  facet normal 0 0 1
    outer loop
      vertex 85 2 2
      vertex 0 0 2
      vertex 125 0 2
    endloop
  endfacet
  facet normal 0 0 1
    outer loop
      vertex 40 6.60254 2
      vertex 0 0 2
      vertex 85 2 2
    endloop
  endfacet
  facet normal 0 0 1
    outer loop
      vertex 9.55496 13.0501 2
      vertex 0 0 2
      vertex 20 6.60254 2
    endloop
  endfacet
  facet normal 0 0 1
    outer loop
      vertex 8.19806 14.1322 2
      vertex 0 0 2
      vertex 9.55496 13.0501 2
    endloop
  endfacet
  facet normal 0 0 1
    outer loop
      vertex 8.19806 15.8678 2
      vertex 0 0 2
      vertex 8.19806 14.1322 2
    endloop
  endfacet
  facet normal 0 0 1
    outer loop
      vertex 109.865 14.1322 2
      vertex 96 9 2
      vertex 97 5 2
    endloop
  endfacet
  facet normal 0 0 1
    outer loop
      vertex 96 9 2
      vertex 85 5 2
      vertex 97 5 2
    endloop
  endfacet
  facet normal 0 0 1
    outer loop
      vertex 85 5 2
      vertex 84 9 2
      vertex 85 2 2
    endloop
  endfacet
  facet normal -0 0 1
    outer loop
      vertex 84 9 2
      vertex 85 5 2
      vertex 96 9 2
    endloop
  endfacet
  facet normal 0 0 -1
    outer loop
      vertex 20 24 2
      vertex 21 104.5 2
      vertex 21 24 2
    endloop
  endfacet
  facet normal -0 0 -1
    outer loop
      vertex 21 104.5 2
      vertex 20 24 2
      vertex 20 104.5 2
    endloop
  endfacet
  facet normal -0 0 -1
    outer loop
      vertex 20 24 0
      vertex 9.55496 16.9499 0
      vertex 20 104.5 0
    endloop
  endfacet
  facet normal 0 0 -1
    outer loop
      vertex 20 104.5 0
      vertex 11.247 111.936 0
      vertex 12 113.5 0
    endloop
  endfacet
  facet normal 0 0 -1
    outer loop
      vertex 9.55496 111.55 0
      vertex 20 104.5 0
      vertex 9.55496 16.9499 0
    endloop
  endfacet
  facet normal 0 0 -1
    outer loop
      vertex 20 104.5 0
      vertex 9.55496 111.55 0
      vertex 11.247 111.936 0
    endloop
  endfacet
  facet normal 0 0 -1
    outer loop
      vertex 8.19806 15.8678 0
      vertex 9.55496 111.55 0
      vertex 9.55496 16.9499 0
    endloop
  endfacet
  facet normal -0 0 -1
    outer loop
      vertex 9.55496 111.55 0
      vertex 8.19806 15.8678 0
      vertex 8.19806 112.632 0
    endloop
  endfacet
  facet normal 0 0 -1
    outer loop
      vertex 112.914 111.936 0
      vertex 125 128.5 0
      vertex 112.914 16.5637 0
    endloop
  endfacet
  facet normal 0 0 -1
    outer loop
      vertex 125 128.5 0
      vertex 112.914 111.936 0
      vertex 113.667 113.5 0
    endloop
  endfacet
  facet normal 0 0 -1
    outer loop
      vertex 105 24 0
      vertex 112.914 16.5637 0
      vertex 111.222 16.9499 0
    endloop
  endfacet
  facet normal 0 0 -1
    outer loop
      vertex 112.914 16.5637 0
      vertex 105 24 0
      vertex 112.914 111.936 0
    endloop
  endfacet
  facet normal 0 0 -1
    outer loop
      vertex 105 24 0
      vertex 111.222 16.9499 0
      vertex 109.865 15.8678 0
    endloop
  endfacet
  facet normal 0 0 -1
    outer loop
      vertex 105 104.5 0
      vertex 112.914 111.936 0
      vertex 105 24 0
    endloop
  endfacet
  facet normal 0 0 -1
    outer loop
      vertex 112.914 16.5637 0
      vertex 125 0 0
      vertex 113.667 15 0
    endloop
  endfacet
  facet normal 0 0 -1
    outer loop
      vertex 125 0 0
      vertex 112.914 13.4363 0
      vertex 113.667 15 0
    endloop
  endfacet
  facet normal 0 0 -1
    outer loop
      vertex 125 0 0
      vertex 111.222 13.0501 0
      vertex 112.914 13.4363 0
    endloop
  endfacet
  facet normal 0 0 -1
    outer loop
      vertex 0 0 0
      vertex 111.222 13.0501 0
      vertex 125 0 0
    endloop
  endfacet
  facet normal 0 0 -1
    outer loop
      vertex 105 24 0
      vertex 109.865 15.8678 0
      vertex 109.865 14.1322 0
    endloop
  endfacet
  facet normal 0 0 -1
    outer loop
      vertex 112.914 111.936 0
      vertex 105 104.5 0
      vertex 111.222 111.55 0
    endloop
  endfacet
  facet normal -0 0 -1
    outer loop
      vertex 111.222 111.55 0
      vertex 105 104.5 0
      vertex 109.865 112.632 0
    endloop
  endfacet
  facet normal 0 0 -1
    outer loop
      vertex 109.865 14.1322 0
      vertex 20 24 0
      vertex 105 24 0
    endloop
  endfacet
  facet normal -0 0 -1
    outer loop
      vertex 111.222 13.0501 0
      vertex 0 0 0
      vertex 109.865 14.1322 0
    endloop
  endfacet
  facet normal 0 0 -1
    outer loop
      vertex 11.247 16.5637 0
      vertex 20 24 0
      vertex 12 15 0
    endloop
  endfacet
  facet normal -0 0 -1
    outer loop
      vertex 109.865 14.1322 0
      vertex 11.247 13.4363 0
      vertex 20 24 0
    endloop
  endfacet
  facet normal 0 0 -1
    outer loop
      vertex 20 24 0
      vertex 11.247 13.4363 0
      vertex 12 15 0
    endloop
  endfacet
  facet normal 0 0 -1
    outer loop
      vertex 109.865 14.1322 0
      vertex 0 0 0
      vertex 11.247 13.4363 0
    endloop
  endfacet
  facet normal 0 0 -1
    outer loop
      vertex 0 0 0
      vertex 8.19806 15.8678 0
      vertex 8.19806 14.1322 0
    endloop
  endfacet
  facet normal -0 0 -1
    outer loop
      vertex 8.19806 15.8678 0
      vertex 0 0 0
      vertex 8.19806 112.632 0
    endloop
  endfacet
  facet normal 0 0 -1
    outer loop
      vertex 0 128.5 0
      vertex 8.19806 112.632 0
      vertex 0 0 0
    endloop
  endfacet
  facet normal -0 0 -1
    outer loop
      vertex 9.55496 13.0501 0
      vertex 0 0 0
      vertex 8.19806 14.1322 0
    endloop
  endfacet
  facet normal 0 0 -1
    outer loop
      vertex 11.247 13.4363 0
      vertex 0 0 0
      vertex 9.55496 13.0501 0
    endloop
  endfacet
  facet normal 0 0 -1
    outer loop
      vertex 125 0 0
      vertex 112.914 16.5637 0
      vertex 125 128.5 0
    endloop
  endfacet
  facet normal 0 0 -1
    outer loop
      vertex 112.914 115.064 0
      vertex 125 128.5 0
      vertex 113.667 113.5 0
    endloop
  endfacet
  facet normal 0 0 -1
    outer loop
      vertex 111.222 115.45 0
      vertex 125 128.5 0
      vertex 112.914 115.064 0
    endloop
  endfacet
  facet normal 0 0 -1
    outer loop
      vertex 0 128.5 0
      vertex 111.222 115.45 0
      vertex 109.865 114.368 0
    endloop
  endfacet
  facet normal -0 0 -1
    outer loop
      vertex 109.865 112.632 0
      vertex 105 104.5 0
      vertex 109.865 114.368 0
    endloop
  endfacet
  facet normal 0 0 -1
    outer loop
      vertex 20 104.5 0
      vertex 109.865 114.368 0
      vertex 105 104.5 0
    endloop
  endfacet
  facet normal 0 0 -1
    outer loop
      vertex 11.247 115.064 0
      vertex 109.865 114.368 0
      vertex 20 104.5 0
    endloop
  endfacet
  facet normal 0 0 -1
    outer loop
      vertex 9.55496 16.9499 0
      vertex 20 24 0
      vertex 11.247 16.5637 0
    endloop
  endfacet
  facet normal 0 0 -1
    outer loop
      vertex 11.247 115.064 0
      vertex 20 104.5 0
      vertex 12 113.5 0
    endloop
  endfacet
  facet normal 0 0 -1
    outer loop
      vertex 0 128.5 0
      vertex 109.865 114.368 0
      vertex 11.247 115.064 0
    endloop
  endfacet
  facet normal 0 0 -1
    outer loop
      vertex 0 128.5 0
      vertex 11.247 115.064 0
      vertex 9.55496 115.45 0
    endloop
  endfacet
  facet normal 0 0 -1
    outer loop
      vertex 111.222 115.45 0
      vertex 0 128.5 0
      vertex 125 128.5 0
    endloop
  endfacet
  facet normal 0 0 -1
    outer loop
      vertex 8.19806 114.368 0
      vertex 0 128.5 0
      vertex 9.55496 115.45 0
    endloop
  endfacet
  facet normal 0 0 -1
    outer loop
      vertex 8.19806 112.632 0
      vertex 0 128.5 0
      vertex 8.19806 114.368 0
    endloop
  endfacet
  facet normal -1 0 0
    outer loop
      vertex 0 0 0
      vertex 0 128.5 2
      vertex 0 128.5 0
    endloop
  endfacet
  facet normal -1 -0 0
    outer loop
      vertex 0 128.5 2
      vertex 0 0 0
      vertex 0 0 2
    endloop
  endfacet
  facet normal 0 1 -0
    outer loop
      vertex 125 128.5 0
      vertex 0 128.5 2
      vertex 125 128.5 2
    endloop
  endfacet
  facet normal 0 1 0
    outer loop
      vertex 0 128.5 2
      vertex 125 128.5 0
      vertex 0 128.5 0
    endloop
  endfacet
  facet normal 0 -1 0
    outer loop
      vertex 0 0 0
      vertex 125 0 2
      vertex 0 0 2
    endloop
  endfacet
  facet normal 0 -1 -0
    outer loop
      vertex 125 0 2
      vertex 0 0 0
      vertex 125 0 0
    endloop
  endfacet
  facet normal -1 0 0
    outer loop
      vertex 105 24 0
      vertex 105 104.5 2
      vertex 105 104.5 0
    endloop
  endfacet
  facet normal -1 -0 0
    outer loop
      vertex 105 104.5 2
      vertex 105 24 0
      vertex 105 24 2
    endloop
  endfacet
  facet normal 1 -0 0
    outer loop
      vertex 20 24 2
      vertex 20 104.5 0
      vertex 20 104.5 2
    endloop
  endfacet
  facet normal 1 0 0
    outer loop
      vertex 20 104.5 0
      vertex 20 24 2
      vertex 20 24 0
    endloop
  endfacet
  facet normal 0 -1 0
    outer loop
      vertex 20 104.5 0
      vertex 21 104.5 2
      vertex 20 104.5 2
    endloop
  endfacet
  facet normal 0 -1 0
    outer loop
      vertex 105 104.5 0
      vertex 21 104.5 2
      vertex 20 104.5 0
    endloop
  endfacet
  facet normal 0 -1 0
    outer loop
      vertex 21 104.5 2
      vertex 105 104.5 0
      vertex 105 104.5 2
    endloop
  endfacet
  facet normal 0 1 -0
    outer loop
      vertex 105 24 0
      vertex 21 24 2
      vertex 105 24 2
    endloop
  endfacet
  facet normal 0 1 0
    outer loop
      vertex 20 24 0
      vertex 21 24 2
      vertex 105 24 0
    endloop
  endfacet
  facet normal 0 1 0
    outer loop
      vertex 21 24 2
      vertex 20 24 0
      vertex 20 24 2
    endloop
  endfacet
  facet normal -0.222523 -0.974928 0
    outer loop
      vertex 9.55496 16.9499 0
      vertex 11.247 16.5637 2
      vertex 9.55496 16.9499 2
    endloop
  endfacet
  facet normal -0.222523 -0.974928 -0
    outer loop
      vertex 11.247 16.5637 2
      vertex 9.55496 16.9499 0
      vertex 11.247 16.5637 0
    endloop
  endfacet
  facet normal -0.900977 -0.433866 0
    outer loop
      vertex 12 15 0
      vertex 11.247 16.5637 2
      vertex 11.247 16.5637 0
    endloop
  endfacet
  facet normal -0.900977 -0.433866 0
    outer loop
      vertex 11.247 16.5637 2
      vertex 12 15 0
      vertex 12 15 2
    endloop
  endfacet
  facet normal -0.900977 0.433866 0
    outer loop
      vertex 11.247 13.4363 0
      vertex 12 15 2
      vertex 12 15 0
    endloop
  endfacet
  facet normal -0.900977 0.433866 0
    outer loop
      vertex 12 15 2
      vertex 11.247 13.4363 0
      vertex 11.247 13.4363 2
    endloop
  endfacet
  facet normal 0.623493 -0.781829 0
    outer loop
      vertex 8.19806 15.8678 0
      vertex 9.55496 16.9499 2
      vertex 8.19806 15.8678 2
    endloop
  endfacet
  facet normal 0.623493 -0.781829 0
    outer loop
      vertex 9.55496 16.9499 2
      vertex 8.19806 15.8678 0
      vertex 9.55496 16.9499 0
    endloop
  endfacet
  facet normal 0.623493 0.781829 -0
    outer loop
      vertex 9.55496 13.0501 0
      vertex 8.19806 14.1322 2
      vertex 9.55496 13.0501 2
    endloop
  endfacet
  facet normal 0.623493 0.781829 0
    outer loop
      vertex 8.19806 14.1322 2
      vertex 9.55496 13.0501 0
      vertex 8.19806 14.1322 0
    endloop
  endfacet
  facet normal -0.222523 0.974928 0
    outer loop
      vertex 11.247 13.4363 0
      vertex 9.55496 13.0501 2
      vertex 11.247 13.4363 2
    endloop
  endfacet
  facet normal -0.222523 0.974928 0
    outer loop
      vertex 9.55496 13.0501 2
      vertex 11.247 13.4363 0
      vertex 9.55496 13.0501 0
    endloop
  endfacet
  facet normal 1 -0 0
    outer loop
      vertex 8.19806 14.1322 2
      vertex 8.19806 15.8678 0
      vertex 8.19806 15.8678 2
    endloop
  endfacet
  facet normal 1 0 0
    outer loop
      vertex 8.19806 15.8678 0
      vertex 8.19806 14.1322 2
      vertex 8.19806 14.1322 0
    endloop
  endfacet
  facet normal -0.222413 -0.974953 0
    outer loop
      vertex 9.55496 115.45 0
      vertex 11.247 115.064 2
      vertex 9.55496 115.45 2
    endloop
  endfacet
  facet normal -0.222413 -0.974953 -0
    outer loop
      vertex 11.247 115.064 2
      vertex 9.55496 115.45 0
      vertex 11.247 115.064 0
    endloop
  endfacet
  facet normal -0.90101 -0.433798 0
    outer loop
      vertex 12 113.5 0
      vertex 11.247 115.064 2
      vertex 11.247 115.064 0
    endloop
  endfacet
  facet normal -0.90101 -0.433798 0
    outer loop
      vertex 11.247 115.064 2
      vertex 12 113.5 0
      vertex 12 113.5 2
    endloop
  endfacet
  facet normal -0.90101 0.433798 0
    outer loop
      vertex 11.247 111.936 0
      vertex 12 113.5 2
      vertex 12 113.5 0
    endloop
  endfacet
  facet normal -0.90101 0.433798 0
    outer loop
      vertex 12 113.5 2
      vertex 11.247 111.936 0
      vertex 11.247 111.936 2
    endloop
  endfacet
  facet normal 0.623458 0.781857 -0
    outer loop
      vertex 9.55496 111.55 0
      vertex 8.19806 112.632 2
      vertex 9.55496 111.55 2
    endloop
  endfacet
  facet normal 0.623458 0.781857 0
    outer loop
      vertex 8.19806 112.632 2
      vertex 9.55496 111.55 0
      vertex 8.19806 112.632 0
    endloop
  endfacet
  facet normal -0.222413 0.974953 0
    outer loop
      vertex 11.247 111.936 0
      vertex 9.55496 111.55 2
      vertex 11.247 111.936 2
    endloop
  endfacet
  facet normal -0.222413 0.974953 0
    outer loop
      vertex 9.55496 111.55 2
      vertex 11.247 111.936 0
      vertex 9.55496 111.55 0
    endloop
  endfacet
  facet normal 1 -0 0
    outer loop
      vertex 8.19806 112.632 2
      vertex 8.19806 114.368 0
      vertex 8.19806 114.368 2
    endloop
  endfacet
  facet normal 1 0 0
    outer loop
      vertex 8.19806 114.368 0
      vertex 8.19806 112.632 2
      vertex 8.19806 112.632 0
    endloop
  endfacet
  facet normal 0.623458 -0.781857 0
    outer loop
      vertex 8.19806 114.368 0
      vertex 9.55496 115.45 2
      vertex 8.19806 114.368 2
    endloop
  endfacet
  facet normal 0.623458 -0.781857 0
    outer loop
      vertex 9.55496 115.45 2
      vertex 8.19806 114.368 0
      vertex 9.55496 115.45 0
    endloop
  endfacet
  facet normal -0.222528 -0.974926 0
    outer loop
      vertex 111.222 16.9499 0
      vertex 112.914 16.5637 2
      vertex 111.222 16.9499 2
    endloop
  endfacet
  facet normal -0.222528 -0.974926 -0
    outer loop
      vertex 112.914 16.5637 2
      vertex 111.222 16.9499 0
      vertex 112.914 16.5637 0
    endloop
  endfacet
  facet normal -0.900977 -0.433866 0
    outer loop
      vertex 113.667 15 0
      vertex 112.914 16.5637 2
      vertex 112.914 16.5637 0
    endloop
  endfacet
  facet normal -0.900977 -0.433866 0
    outer loop
      vertex 112.914 16.5637 2
      vertex 113.667 15 0
      vertex 113.667 15 2
    endloop
  endfacet
  facet normal -0.900977 0.433866 0
    outer loop
      vertex 112.914 13.4363 0
      vertex 113.667 15 2
      vertex 113.667 15 0
    endloop
  endfacet
  facet normal -0.900977 0.433866 0
    outer loop
      vertex 113.667 15 2
      vertex 112.914 13.4363 0
      vertex 112.914 13.4363 2
    endloop
  endfacet
  facet normal 0.623465 -0.781852 0
    outer loop
      vertex 109.865 15.8678 0
      vertex 111.222 16.9499 2
      vertex 109.865 15.8678 2
    endloop
  endfacet
  facet normal 0.623465 -0.781852 0
    outer loop
      vertex 111.222 16.9499 2
      vertex 109.865 15.8678 0
      vertex 111.222 16.9499 0
    endloop
  endfacet
  facet normal 0.623465 0.781852 -0
    outer loop
      vertex 111.222 13.0501 0
      vertex 109.865 14.1322 2
      vertex 111.222 13.0501 2
    endloop
  endfacet
  facet normal 0.623465 0.781852 0
    outer loop
      vertex 109.865 14.1322 2
      vertex 111.222 13.0501 0
      vertex 109.865 14.1322 0
    endloop
  endfacet
  facet normal -0.222528 0.974926 0
    outer loop
      vertex 112.914 13.4363 0
      vertex 111.222 13.0501 2
      vertex 112.914 13.4363 2
    endloop
  endfacet
  facet normal -0.222528 0.974926 0
    outer loop
      vertex 111.222 13.0501 2
      vertex 112.914 13.4363 0
      vertex 111.222 13.0501 0
    endloop
  endfacet
  facet normal 1 -0 0
    outer loop
      vertex 109.865 14.1322 2
      vertex 109.865 15.8678 0
      vertex 109.865 15.8678 2
    endloop
  endfacet
  facet normal 1 0 0
    outer loop
      vertex 109.865 15.8678 0
      vertex 109.865 14.1322 2
      vertex 109.865 14.1322 0
    endloop
  endfacet
  facet normal -0.222418 -0.974951 0
    outer loop
      vertex 111.222 115.45 0
      vertex 112.914 115.064 2
      vertex 111.222 115.45 2
    endloop
  endfacet
  facet normal -0.222418 -0.974951 -0
    outer loop
      vertex 112.914 115.064 2
      vertex 111.222 115.45 0
      vertex 112.914 115.064 0
    endloop
  endfacet
  facet normal -0.90101 -0.433798 0
    outer loop
      vertex 113.667 113.5 0
      vertex 112.914 115.064 2
      vertex 112.914 115.064 0
    endloop
  endfacet
  facet normal -0.90101 -0.433798 0
    outer loop
      vertex 112.914 115.064 2
      vertex 113.667 113.5 0
      vertex 113.667 113.5 2
    endloop
  endfacet
  facet normal -0.90101 0.433798 0
    outer loop
      vertex 112.914 111.936 0
      vertex 113.667 113.5 2
      vertex 113.667 113.5 0
    endloop
  endfacet
  facet normal -0.90101 0.433798 0
    outer loop
      vertex 113.667 113.5 2
      vertex 112.914 111.936 0
      vertex 112.914 111.936 2
    endloop
  endfacet
  facet normal 0.623429 0.78188 -0
    outer loop
      vertex 111.222 111.55 0
      vertex 109.865 112.632 2
      vertex 111.222 111.55 2
    endloop
  endfacet
  facet normal 0.623429 0.78188 0
    outer loop
      vertex 109.865 112.632 2
      vertex 111.222 111.55 0
      vertex 109.865 112.632 0
    endloop
  endfacet
  facet normal -0.222418 0.974951 0
    outer loop
      vertex 112.914 111.936 0
      vertex 111.222 111.55 2
      vertex 112.914 111.936 2
    endloop
  endfacet
  facet normal -0.222418 0.974951 0
    outer loop
      vertex 111.222 111.55 2
      vertex 112.914 111.936 0
      vertex 111.222 111.55 0
    endloop
  endfacet
  facet normal 1 -0 0
    outer loop
      vertex 109.865 112.632 2
      vertex 109.865 114.368 0
      vertex 109.865 114.368 2
    endloop
  endfacet
  facet normal 1 0 0
    outer loop
      vertex 109.865 114.368 0
      vertex 109.865 112.632 2
      vertex 109.865 112.632 0
    endloop
  endfacet
  facet normal 0.623429 -0.78188 0
    outer loop
      vertex 109.865 114.368 0
      vertex 111.222 115.45 2
      vertex 109.865 114.368 2
    endloop
  endfacet
  facet normal 0.623429 -0.78188 0
    outer loop
      vertex 111.222 115.45 2
      vertex 109.865 114.368 0
      vertex 111.222 115.45 0
    endloop
  endfacet
  facet normal 1 -0 0
    outer loop
      vertex 21 102.5 7
      vertex 21 107.5 2
      vertex 21 107.5 54
    endloop
  endfacet
  facet normal 1 0 0
    outer loop
      vertex 21 102.5 7
      vertex 21 107.5 54
      vertex 21 102.5 49
    endloop
  endfacet
  facet normal 1 -0 0
    outer loop
      vertex 21 21 54
      vertex 21 102.5 49
      vertex 21 107.5 54
    endloop
  endfacet
  facet normal 1 0 0
    outer loop
      vertex 21 21 2
      vertex 21 24 7
      vertex 21 24 49
    endloop
  endfacet
  facet normal 1 0 0
    outer loop
      vertex 21 102.5 49
      vertex 21 21 54
      vertex 21 24 49
    endloop
  endfacet
  facet normal 1 0 0
    outer loop
      vertex 21 21 2
      vertex 21 24 49
      vertex 21 21 54
    endloop
  endfacet
  facet normal 1 0 0
    outer loop
      vertex 21 24 7
      vertex 21 21 2
      vertex 21 24 2
    endloop
  endfacet
  facet normal 1 0 0
    outer loop
      vertex 21 107.5 2
      vertex 21 102.5 7
      vertex 21 104.5 2
    endloop
  endfacet
  facet normal 1 0 0
    outer loop
      vertex 21 24 2
      vertex 21 102.5 7
      vertex 21 24 7
    endloop
  endfacet
  facet normal 1 0 0
    outer loop
      vertex 21 102.5 7
      vertex 21 24 2
      vertex 21 104.5 2
    endloop
  endfacet
  facet normal 0 0 1
    outer loop
      vertex 105 109.5 56
      vertex 100 104.5 56
      vertex 105 19 56
    endloop
  endfacet
  facet normal 0 0 1
    outer loop
      vertex 105 109.5 56
      vertex 25 104.5 56
      vertex 100 104.5 56
    endloop
  endfacet
  facet normal 0 0 1
    outer loop
      vertex 25 104.5 56
      vertex 19 109.5 56
      vertex 25 24 56
    endloop
  endfacet
  facet normal -0 0 1
    outer loop
      vertex 19 109.5 56
      vertex 25 104.5 56
      vertex 105 109.5 56
    endloop
  endfacet
  facet normal -0 0 1
    outer loop
      vertex 100 24 56
      vertex 105 19 56
      vertex 100 104.5 56
    endloop
  endfacet
  facet normal -0 0 1
    outer loop
      vertex 25 24 56
      vertex 105 19 56
      vertex 100 24 56
    endloop
  endfacet
  facet normal 0 0 1
    outer loop
      vertex 25 24 56
      vertex 19 19 56
      vertex 105 19 56
    endloop
  endfacet
  facet normal 0 0 1
    outer loop
      vertex 19 19 56
      vertex 25 24 56
      vertex 19 109.5 56
    endloop
  endfacet
  facet normal -1 0 0
    outer loop
      vertex 19 24 48.2679
      vertex 19 19 48.2679
      vertex 19 24 49
    endloop
  endfacet
  facet normal -1 0 0
    outer loop
      vertex 19 104.5 2
      vertex 19 102.5 7
      vertex 19 104.5 48.2679
    endloop
  endfacet
  facet normal -1 0 0
    outer loop
      vertex 19 24 2
      vertex 19 102.5 7
      vertex 19 104.5 2
    endloop
  endfacet
  facet normal -1 -0 0
    outer loop
      vertex 19 102.5 7
      vertex 19 24 2
      vertex 19 24 7
    endloop
  endfacet
  facet normal -1 0 0
    outer loop
      vertex 19 104.5 48.2679
      vertex 19 109.5 56
      vertex 19 109.5 48.2679
    endloop
  endfacet
  facet normal -1 0 0
    outer loop
      vertex 19 102.5 49
      vertex 19 104.5 48.2679
      vertex 19 102.5 7
    endloop
  endfacet
  facet normal -1 0 0
    outer loop
      vertex 19 102.5 49
      vertex 19 109.5 56
      vertex 19 104.5 48.2679
    endloop
  endfacet
  facet normal -1 0 0
    outer loop
      vertex 19 19 56
      vertex 19 102.5 49
      vertex 19 24 49
    endloop
  endfacet
  facet normal -1 0 0
    outer loop
      vertex 19 102.5 49
      vertex 19 19 56
      vertex 19 109.5 56
    endloop
  endfacet
  facet normal -1 0 0
    outer loop
      vertex 19 19 56
      vertex 19 24 49
      vertex 19 19 48.2679
    endloop
  endfacet
  facet normal 0 1 -0
    outer loop
      vertex 60 109.5 2
      vertex 40 109.5 48.2679
      vertex 60 109.5 48.2679
    endloop
  endfacet
  facet normal 0 1 0
    outer loop
      vertex 40 109.5 48.2679
      vertex 60 109.5 2
      vertex 40 109.5 2
    endloop
  endfacet
  facet normal 0 1 0
    outer loop
      vertex 60 109.5 48.2679
      vertex 105 109.5 56
      vertex 80 109.5 48.2679
    endloop
  endfacet
  facet normal 0 1 -0
    outer loop
      vertex 105 109.5 2
      vertex 80 109.5 48.2679
      vertex 105 109.5 56
    endloop
  endfacet
  facet normal 0 1 0
    outer loop
      vertex 80 109.5 48.2679
      vertex 105 109.5 2
      vertex 80 109.5 2
    endloop
  endfacet
  facet normal 0 1 0
    outer loop
      vertex 105 109.5 56
      vertex 60 109.5 48.2679
      vertex 19 109.5 56
    endloop
  endfacet
  facet normal 0 1 -0
    outer loop
      vertex 40 109.5 48.2679
      vertex 19 109.5 56
      vertex 60 109.5 48.2679
    endloop
  endfacet
  facet normal 0 1 -0
    outer loop
      vertex 20 109.5 48.2679
      vertex 19 109.5 56
      vertex 40 109.5 48.2679
    endloop
  endfacet
  facet normal 0 1 0
    outer loop
      vertex 20 109.5 48.2679
      vertex 19 109.5 48.2679
      vertex 19 109.5 56
    endloop
  endfacet
  facet normal 0 1 0
    outer loop
      vertex 20 109.5 48.2679
      vertex 10 109.5 14.6795
      vertex 19 109.5 48.2679
    endloop
  endfacet
  facet normal 0 1 -0
    outer loop
      vertex 20 109.5 2
      vertex 10 109.5 14.6795
      vertex 20 109.5 48.2679
    endloop
  endfacet
  facet normal 0 1 0
    outer loop
      vertex 10 109.5 14.6795
      vertex 20 109.5 2
      vertex 10 109.5 2
    endloop
  endfacet
  facet normal 0 -1 0
    outer loop
      vertex 40 19 2
      vertex 60 19 48.2679
      vertex 40 19 48.2679
    endloop
  endfacet
  facet normal 0 -1 -0
    outer loop
      vertex 60 19 48.2679
      vertex 40 19 2
      vertex 60 19 2
    endloop
  endfacet
  facet normal 0 -1 0
    outer loop
      vertex 10 19 14.6795
      vertex 20 19 48.2679
      vertex 19 19 48.2679
    endloop
  endfacet
  facet normal 0 -1 0
    outer loop
      vertex 20 19 2
      vertex 10 19 14.6795
      vertex 10 19 2
    endloop
  endfacet
  facet normal 0 -1 0
    outer loop
      vertex 10 19 14.6795
      vertex 20 19 2
      vertex 20 19 48.2679
    endloop
  endfacet
  facet normal 0 -1 0
    outer loop
      vertex 20 19 48.2679
      vertex 19 19 56
      vertex 19 19 48.2679
    endloop
  endfacet
  facet normal 0 -1 0
    outer loop
      vertex 40 19 48.2679
      vertex 19 19 56
      vertex 20 19 48.2679
    endloop
  endfacet
  facet normal 0 -1 0
    outer loop
      vertex 60 19 48.2679
      vertex 19 19 56
      vertex 40 19 48.2679
    endloop
  endfacet
  facet normal 0 -1 0
    outer loop
      vertex 19 19 56
      vertex 60 19 48.2679
      vertex 105 19 56
    endloop
  endfacet
  facet normal 0 -1 0
    outer loop
      vertex 80 19 48.2679
      vertex 105 19 56
      vertex 60 19 48.2679
    endloop
  endfacet
  facet normal 0 -1 0
    outer loop
      vertex 105 19 2
      vertex 80 19 48.2679
      vertex 80 19 2
    endloop
  endfacet
  facet normal 0 -1 0
    outer loop
      vertex 80 19 48.2679
      vertex 105 19 2
      vertex 105 19 56
    endloop
  endfacet
  facet normal 0 0 -1
    outer loop
      vertex 20 24 49
      vertex 21 102.5 49
      vertex 21 24 49
    endloop
  endfacet
  facet normal 0 0 -1
    outer loop
      vertex 19 102.5 49
      vertex 20 24 49
      vertex 19.1962 24 49
    endloop
  endfacet
  facet normal 0 0 -1
    outer loop
      vertex 19 102.5 49
      vertex 19.1962 24 49
      vertex 19 24 49
    endloop
  endfacet
  facet normal 0 0 -1
    outer loop
      vertex 20 24 49
      vertex 19 102.5 49
      vertex 21 102.5 49
    endloop
  endfacet
  facet normal 0 0 1
    outer loop
      vertex 21 102.5 7
      vertex 20 24 7
      vertex 21 24 7
    endloop
  endfacet
  facet normal -0 0 1
    outer loop
      vertex 19 102.5 7
      vertex 20 24 7
      vertex 21 102.5 7
    endloop
  endfacet
  facet normal 0 0 1
    outer loop
      vertex 20 24 7
      vertex 19 102.5 7
      vertex 19 24 7
    endloop
  endfacet
  facet normal 0 -1 0
    outer loop
      vertex 19 102.5 7
      vertex 21 102.5 49
      vertex 19 102.5 49
    endloop
  endfacet
  facet normal 0 -1 -0
    outer loop
      vertex 21 102.5 49
      vertex 19 102.5 7
      vertex 21 102.5 7
    endloop
  endfacet
  facet normal 0 1 0
    outer loop
      vertex 20 24 49
      vertex 19 24 48.2679
      vertex 19.1962 24 49
    endloop
  endfacet
  facet normal 0 1 -0
    outer loop
      vertex 20 24 7
      vertex 19 24 48.2679
      vertex 20 24 49
    endloop
  endfacet
  facet normal 0 1 0
    outer loop
      vertex 19 24 48.2679
      vertex 20 24 7
      vertex 10 24 14.6795
    endloop
  endfacet
  facet normal 0 1 -0
    outer loop
      vertex 19 24 7
      vertex 10 24 14.6795
      vertex 20 24 7
    endloop
  endfacet
  facet normal 0 1 0
    outer loop
      vertex 10 24 2
      vertex 19 24 7
      vertex 19 24 2
    endloop
  endfacet
  facet normal 0 1 0
    outer loop
      vertex 19 24 7
      vertex 10 24 2
      vertex 10 24 14.6795
    endloop
  endfacet
  facet normal -0 1 0
    outer loop
      vertex 19 24 49
      vertex 19.1962 24 49
      vertex 19 24 48.2679
    endloop
  endfacet
  facet normal 0 1 -0
    outer loop
      vertex 21 24 7
      vertex 20 24 49
      vertex 21 24 49
    endloop
  endfacet
  facet normal 0 1 0
    outer loop
      vertex 20 24 49
      vertex 21 24 7
      vertex 20 24 7
    endloop
  endfacet
  facet normal 1 0 0
    outer loop
      vertex 105 109.5 56
      vertex 105 107.5 54
      vertex 105 109.5 2
    endloop
  endfacet
  facet normal 1 0 0
    outer loop
      vertex 105 109.5 56
      vertex 105 21 54
      vertex 105 107.5 54
    endloop
  endfacet
  facet normal 1 -0 0
    outer loop
      vertex 105 19 56
      vertex 105 21 54
      vertex 105 109.5 56
    endloop
  endfacet
  facet normal 1 0 0
    outer loop
      vertex 105 19 2
      vertex 105 21 54
      vertex 105 19 56
    endloop
  endfacet
  facet normal 1 0 0
    outer loop
      vertex 105 21 54
      vertex 105 19 2
      vertex 105 21 2
    endloop
  endfacet
  facet normal 1 0 0
    outer loop
      vertex 105 109.5 2
      vertex 105 107.5 54
      vertex 105 107.5 2
    endloop
  endfacet
  facet normal 0 0 -1
    outer loop
      vertex 105 21 54
      vertex 100 24 54
      vertex 105 107.5 54
    endloop
  endfacet
  facet normal 0 0 -1
    outer loop
      vertex 21 21 54
      vertex 100 24 54
      vertex 105 21 54
    endloop
  endfacet
  facet normal -0 0 -1
    outer loop
      vertex 25 24 54
      vertex 21 21 54
      vertex 25 104.5 54
    endloop
  endfacet
  facet normal -0 0 -1
    outer loop
      vertex 100 24 54
      vertex 21 21 54
      vertex 25 24 54
    endloop
  endfacet
  facet normal 0 0 -1
    outer loop
      vertex 100 104.5 54
      vertex 105 107.5 54
      vertex 100 24 54
    endloop
  endfacet
  facet normal 0 0 -1
    outer loop
      vertex 21 107.5 54
      vertex 100 104.5 54
      vertex 25 104.5 54
    endloop
  endfacet
  facet normal 0 0 -1
    outer loop
      vertex 100 104.5 54
      vertex 21 107.5 54
      vertex 105 107.5 54
    endloop
  endfacet
  facet normal 0 0 -1
    outer loop
      vertex 21 107.5 54
      vertex 25 104.5 54
      vertex 21 21 54
    endloop
  endfacet
  facet normal -1 0 0
    outer loop
      vertex 100 24 54
      vertex 100 104.5 56
      vertex 100 104.5 54
    endloop
  endfacet
  facet normal -1 -0 0
    outer loop
      vertex 100 104.5 56
      vertex 100 24 54
      vertex 100 24 56
    endloop
  endfacet
  facet normal 1 -0 0
    outer loop
      vertex 25 24 56
      vertex 25 104.5 54
      vertex 25 104.5 56
    endloop
  endfacet
  facet normal 1 0 0
    outer loop
      vertex 25 104.5 54
      vertex 25 24 56
      vertex 25 24 54
    endloop
  endfacet
  facet normal 0 -1 0
    outer loop
      vertex 25 104.5 54
      vertex 100 104.5 56
      vertex 25 104.5 56
    endloop
  endfacet
  facet normal 0 -1 -0
    outer loop
      vertex 100 104.5 56
      vertex 25 104.5 54
      vertex 100 104.5 54
    endloop
  endfacet
  facet normal 0 1 -0
    outer loop
      vertex 100 24 54
      vertex 25 24 56
      vertex 100 24 56
    endloop
  endfacet
  facet normal 0 1 0
    outer loop
      vertex 25 24 56
      vertex 100 24 54
      vertex 25 24 54
    endloop
  endfacet
  facet normal 0 1 -0
    outer loop
      vertex 105 21 2
      vertex 21 21 54
      vertex 105 21 54
    endloop
  endfacet
  facet normal 0 1 0
    outer loop
      vertex 21 21 54
      vertex 105 21 2
      vertex 21 21 2
    endloop
  endfacet
  facet normal 0 -1 0
    outer loop
      vertex 21 107.5 2
      vertex 105 107.5 54
      vertex 21 107.5 54
    endloop
  endfacet
  facet normal 0 -1 -0
    outer loop
      vertex 105 107.5 54
      vertex 21 107.5 2
      vertex 105 107.5 2
    endloop
  endfacet
  facet normal 1 0 0
    outer loop
      vertex 40 19 48.2679
      vertex 40 6.60254 2
      vertex 40 19 2
    endloop
  endfacet
  facet normal -1 0 0
    outer loop
      vertex 20 19 2
      vertex 20 6.60254 2
      vertex 20 19 48.2679
    endloop
  endfacet
  facet normal 0 -0.965926 0.258819
    outer loop
      vertex 20 6.60254 2
      vertex 40 19 48.2679
      vertex 20 19 48.2679
    endloop
  endfacet
  facet normal 0 -0.965926 0.258819
    outer loop
      vertex 40 19 48.2679
      vertex 20 6.60254 2
      vertex 40 6.60254 2
    endloop
  endfacet
  facet normal 1 0 0
    outer loop
      vertex 80 19 48.2679
      vertex 80 6.60254 2
      vertex 80 19 2
    endloop
  endfacet
  facet normal -1 0 0
    outer loop
      vertex 60 19 2
      vertex 60 6.60254 2
      vertex 60 19 48.2679
    endloop
  endfacet
  facet normal 0 -0.965926 0.258819
    outer loop
      vertex 60 6.60254 2
      vertex 80 19 48.2679
      vertex 60 19 48.2679
    endloop
  endfacet
  facet normal 0 -0.965926 0.258819
    outer loop
      vertex 80 19 48.2679
      vertex 60 6.60254 2
      vertex 80 6.60254 2
    endloop
  endfacet
  facet normal 1 0 0
    outer loop
      vertex 40 121.897 2
      vertex 40 109.5 48.2679
      vertex 40 109.5 2
    endloop
  endfacet
  facet normal -1 0 0
    outer loop
      vertex 20 109.5 48.2679
      vertex 20 121.897 2
      vertex 20 109.5 2
    endloop
  endfacet
  facet normal 0 0.965928 0.25881
    outer loop
      vertex 40 121.897 2
      vertex 20 109.5 48.2679
      vertex 40 109.5 48.2679
    endloop
  endfacet
  facet normal 0 0.965928 0.25881
    outer loop
      vertex 20 109.5 48.2679
      vertex 40 121.897 2
      vertex 20 121.897 2
    endloop
  endfacet
  facet normal 1 0 0
    outer loop
      vertex 80 121.897 2
      vertex 80 109.5 48.2679
      vertex 80 109.5 2
    endloop
  endfacet
  facet normal -1 0 0
    outer loop
      vertex 60 109.5 48.2679
      vertex 60 121.897 2
      vertex 60 109.5 2
    endloop
  endfacet
  facet normal 0 0.965928 0.25881
    outer loop
      vertex 80 121.897 2
      vertex 60 109.5 48.2679
      vertex 80 109.5 48.2679
    endloop
  endfacet
  facet normal 0 0.965928 0.25881
    outer loop
      vertex 60 109.5 48.2679
      vertex 80 121.897 2
      vertex 60 121.897 2
    endloop
  endfacet
  facet normal -1 0 0
    outer loop
      vertex 10 19 2
      vertex 10 24 14.6795
      vertex 10 24 2
    endloop
  endfacet
  facet normal -1 -0 0
    outer loop
      vertex 10 24 14.6795
      vertex 10 19 2
      vertex 10 19 14.6795
    endloop
  endfacet
  facet normal -0.965926 0 0.258819
    outer loop
      vertex 10 19 14.6795
      vertex 19 24 48.2679
      vertex 10 24 14.6795
    endloop
  endfacet
  facet normal -0.965926 0 0.258819
    outer loop
      vertex 19 24 48.2679
      vertex 10 19 14.6795
      vertex 19 19 48.2679
    endloop
  endfacet
  facet normal 0 -1 0
    outer loop
      vertex 19 104.5 2
      vertex 10 104.5 14.6795
      vertex 10 104.5 2
    endloop
  endfacet
  facet normal 0 -1 0
    outer loop
      vertex 10 104.5 14.6795
      vertex 19 104.5 2
      vertex 19 104.5 48.2679
    endloop
  endfacet
  facet normal -1 0 0
    outer loop
      vertex 10 104.5 2
      vertex 10 109.5 14.6795
      vertex 10 109.5 2
    endloop
  endfacet
  facet normal -1 -0 0
    outer loop
      vertex 10 109.5 14.6795
      vertex 10 104.5 2
      vertex 10 104.5 14.6795
    endloop
  endfacet
  facet normal -0.965926 0 0.258819
    outer loop
      vertex 10 104.5 14.6795
      vertex 19 109.5 48.2679
      vertex 10 109.5 14.6795
    endloop
  endfacet
  facet normal -0.965926 0 0.258819
    outer loop
      vertex 19 109.5 48.2679
      vertex 10 104.5 14.6795
      vertex 19 104.5 48.2679
    endloop
  endfacet
  facet normal 1 -0 0
    outer loop
      vertex 96 9 21
      vertex 96 12 2
      vertex 96 12 21
    endloop
  endfacet
  facet normal 1 0 0
    outer loop
      vertex 96 12 2
      vertex 96 9 21
      vertex 96 9 2
    endloop
  endfacet
  facet normal -0 0 1
    outer loop
      vertex 84 12 26
      vertex 102 9 26
      vertex 102 12 26
    endloop
  endfacet
  facet normal 0 0 1
    outer loop
      vertex 102 9 26
      vertex 84 12 26
      vertex 84 9 26
    endloop
  endfacet
  facet normal -1 0 0
    outer loop
      vertex 84 9 2
      vertex 84 12 26
      vertex 84 12 2
    endloop
  endfacet
  facet normal -1 -0 0
    outer loop
      vertex 84 12 26
      vertex 84 9 2
      vertex 84 9 26
    endloop
  endfacet
  facet normal 0 1 0
    outer loop
      vertex 96 12 21
      vertex 102 12 26
      vertex 102 12 21
    endloop
  endfacet
  facet normal 0 1 0
    outer loop
      vertex 102 12 26
      vertex 96 12 21
      vertex 84 12 26
    endloop
  endfacet
  facet normal 0 1 0
    outer loop
      vertex 84 12 2
      vertex 96 12 21
      vertex 96 12 2
    endloop
  endfacet
  facet normal 0 1 0
    outer loop
      vertex 96 12 21
      vertex 84 12 2
      vertex 84 12 26
    endloop
  endfacet
  facet normal 0 -1 0
    outer loop
      vertex 84 9 26
      vertex 96 9 21
      vertex 102 9 26
    endloop
  endfacet
  facet normal 0 -1 0
    outer loop
      vertex 84 9 2
      vertex 96 9 21
      vertex 84 9 26
    endloop
  endfacet
  facet normal 0 -1 -0
    outer loop
      vertex 96 9 21
      vertex 84 9 2
      vertex 96 9 2
    endloop
  endfacet
  facet normal 0 -1 -0
    outer loop
      vertex 102 9 26
      vertex 96 9 21
      vertex 102 9 21
    endloop
  endfacet
  facet normal 1 -0 0
    outer loop
      vertex 97 2 21
      vertex 97 5 2
      vertex 97 5 21
    endloop
  endfacet
  facet normal 1 0 0
    outer loop
      vertex 97 5 2
      vertex 97 2 21
      vertex 97 2 2
    endloop
  endfacet
  facet normal -0 0 1
    outer loop
      vertex 85 5 26
      vertex 102 2 26
      vertex 102 5 26
    endloop
  endfacet
  facet normal 0 0 1
    outer loop
      vertex 102 2 26
      vertex 85 5 26
      vertex 85 2 26
    endloop
  endfacet
  facet normal -1 0 0
    outer loop
      vertex 85 2 2
      vertex 85 5 26
      vertex 85 5 2
    endloop
  endfacet
  facet normal -1 -0 0
    outer loop
      vertex 85 5 26
      vertex 85 2 2
      vertex 85 2 26
    endloop
  endfacet
  facet normal 0 1 0
    outer loop
      vertex 97 5 21
      vertex 102 5 26
      vertex 102 5 21
    endloop
  endfacet
  facet normal 0 1 0
    outer loop
      vertex 102 5 26
      vertex 97 5 21
      vertex 85 5 26
    endloop
  endfacet
  facet normal 0 1 0
    outer loop
      vertex 85 5 2
      vertex 97 5 21
      vertex 97 5 2
    endloop
  endfacet
  facet normal 0 1 0
    outer loop
      vertex 97 5 21
      vertex 85 5 2
      vertex 85 5 26
    endloop
  endfacet
  facet normal 0 -1 0
    outer loop
      vertex 85 2 26
      vertex 97 2 21
      vertex 102 2 26
    endloop
  endfacet
  facet normal 0 -1 0
    outer loop
      vertex 85 2 2
      vertex 97 2 21
      vertex 85 2 26
    endloop
  endfacet
  facet normal 0 -1 -0
    outer loop
      vertex 97 2 21
      vertex 85 2 2
      vertex 97 2 2
    endloop
  endfacet
  facet normal 0 -1 -0
    outer loop
      vertex 102 2 26
      vertex 97 2 21
      vertex 102 2 21
    endloop
  endfacet
  facet normal 1 -0 0
    outer loop
      vertex 102 9 26
      vertex 102 12 21
      vertex 102 12 26
    endloop
  endfacet
  facet normal 1 0 0
    outer loop
      vertex 102 12 21
      vertex 102 9 26
      vertex 102 9 21
    endloop
  endfacet
  facet normal 0 0 -1
    outer loop
      vertex 96 9 21
      vertex 102 12 21
      vertex 102 9 21
    endloop
  endfacet
  facet normal -0 0 -1
    outer loop
      vertex 102 12 21
      vertex 96 9 21
      vertex 96 12 21
    endloop
  endfacet
  facet normal 1 -0 0
    outer loop
      vertex 102 2 26
      vertex 102 5 21
      vertex 102 5 26
    endloop
  endfacet
  facet normal 1 0 0
    outer loop
      vertex 102 5 21
      vertex 102 2 26
      vertex 102 2 21
    endloop
  endfacet
  facet normal 0 0 -1
    outer loop
      vertex 97 2 21
      vertex 102 5 21
      vertex 102 2 21
    endloop
  endfacet
  facet normal -0 0 -1
    outer loop
      vertex 102 5 21
      vertex 97 2 21
      vertex 97 5 21
    endloop
  endfacet
endsolid OpenSCAD_Model
