solid OpenSCAD_Model
  facet normal -1 0 0
    outer loop
      vertex 3 18 6
      vertex 3 31.5 8
      vertex 3 31.5 6
    endloop
  endfacet
  facet normal -1 -0 0
    outer loop
      vertex 3 31.5 8
      vertex 3 18 6
      vertex 3 18 8
    endloop
  endfacet
  facet normal -1 0 0
    outer loop
      vertex 3 -22.5 6
      vertex 3 0 8
      vertex 3 0 6
    endloop
  endfacet
  facet normal -1 -0 0
    outer loop
      vertex 3 0 8
      vertex 3 -22.5 6
      vertex 3 -22.5 8
    endloop
  endfacet
  facet normal 1 -0 0
    outer loop
      vertex 3 0 6
      vertex 3 18 2
      vertex 3 18 6
    endloop
  endfacet
  facet normal 1 0 0
    outer loop
      vertex 3 18 2
      vertex 3 0 6
      vertex 3 0 2
    endloop
  endfacet
  facet normal -0 0 1
    outer loop
      vertex 0 18 8
      vertex 3 0 8
      vertex 3 18 8
    endloop
  endfacet
  facet normal 0 0 1
    outer loop
      vertex 3 0 8
      vertex 0 18 8
      vertex 0 0 8
    endloop
  endfacet
  facet normal 0 0 1
    outer loop
      vertex 3 18 8
      vertex 10.8 31.5 8
      vertex 3 31.5 8
    endloop
  endfacet
  facet normal 0 0 1
    outer loop
      vertex 3 0 8
      vertex 10.8 31.5 8
      vertex 3 18 8
    endloop
  endfacet
  facet normal 0 0 1
    outer loop
      vertex 10.8 31.5 8
      vertex 3 0 8
      vertex 10.8 -22.5 8
    endloop
  endfacet
  facet normal 0 0 1
    outer loop
      vertex 10.8 -22.5 8
      vertex 3 0 8
      vertex 3 -22.5 8
    endloop
  endfacet
  facet normal 0 0 -1
    outer loop
      vertex 0 0 0
      vertex 6 18 0
      vertex 6 0 0
    endloop
  endfacet
  facet normal -0 0 -1
    outer loop
      vertex 6 18 0
      vertex 0 0 0
      vertex 0 18 0
    endloop
  endfacet
  facet normal -1 0 0
    outer loop
      vertex 0 0 0
      vertex 0 18 8
      vertex 0 18 0
    endloop
  endfacet
  facet normal -1 -0 0
    outer loop
      vertex 0 18 8
      vertex 0 0 0
      vertex 0 0 8
    endloop
  endfacet
  facet normal 0 1 0
    outer loop
      vertex 6 18 2
      vertex 6 18 0
      vertex 3 18 2
    endloop
  endfacet
  facet normal 0 1 -0
    outer loop
      vertex 3 18 6
      vertex 0 18 8
      vertex 3 18 8
    endloop
  endfacet
  facet normal 0 1 -0
    outer loop
      vertex 3 18 2
      vertex 0 18 8
      vertex 3 18 6
    endloop
  endfacet
  facet normal 0 1 0
    outer loop
      vertex 3 18 2
      vertex 0 18 0
      vertex 0 18 8
    endloop
  endfacet
  facet normal 0 1 0
    outer loop
      vertex 0 18 0
      vertex 3 18 2
      vertex 6 18 0
    endloop
  endfacet
  facet normal 0 -1 0
    outer loop
      vertex 0 0 8
      vertex 3 0 6
      vertex 3 0 8
    endloop
  endfacet
  facet normal 0 -1 0
    outer loop
      vertex 0 0 8
      vertex 3 0 2
      vertex 3 0 6
    endloop
  endfacet
  facet normal 0 -1 0
    outer loop
      vertex 0 0 0
      vertex 3 0 2
      vertex 0 0 8
    endloop
  endfacet
  facet normal 0 -1 0
    outer loop
      vertex 6 0 0
      vertex 3 0 2
      vertex 0 0 0
    endloop
  endfacet
  facet normal 0 -1 0
    outer loop
      vertex 3 0 2
      vertex 6 0 0
      vertex 6 0 2
    endloop
  endfacet
  facet normal 1 -0 0
    outer loop
      vertex 6 0 2
      vertex 6 18 0
      vertex 6 18 2
    endloop
  endfacet
  facet normal 1 0 0
    outer loop
      vertex 6 18 0
      vertex 6 0 2
      vertex 6 0 0
    endloop
  endfacet
  facet normal -0 0 1
    outer loop
      vertex 3 18 2
      vertex 6 0 2
      vertex 6 18 2
    endloop
  endfacet
  facet normal 0 0 1
    outer loop
      vertex 6 0 2
      vertex 3 18 2
      vertex 3 0 2
    endloop
  endfacet
  facet normal 1 -0 0
    outer loop
      vertex 10.8 -22.5 8
      vertex 10.8 31.5 2.5
      vertex 10.8 31.5 8
    endloop
  endfacet
  facet normal 1 0 0
    outer loop
      vertex 10.8 31.5 2.5
      vertex 10.8 -22.5 8
      vertex 10.8 -22.5 2.5
    endloop
  endfacet
  facet normal 0 0 -1
    outer loop
      vertex 3 0 6
      vertex 8.8 -22.5 6
      vertex 3 -22.5 6
    endloop
  endfacet
  facet normal 0 0 -1
    outer loop
      vertex 8.8 -22.5 6
      vertex 3 0 6
      vertex 8.8 31.5 6
    endloop
  endfacet
  facet normal 0 0 -1
    outer loop
      vertex 3 18 6
      vertex 8.8 31.5 6
      vertex 3 0 6
    endloop
  endfacet
  facet normal -0 0 -1
    outer loop
      vertex 8.8 31.5 6
      vertex 3 18 6
      vertex 3 31.5 6
    endloop
  endfacet
  facet normal 0 1 0
    outer loop
      vertex 10.8 31.5 8
      vertex 8.8 31.5 6
      vertex 3 31.5 8
    endloop
  endfacet
  facet normal 0 1 -0
    outer loop
      vertex 10.8 31.5 2.5
      vertex 8.8 31.5 6
      vertex 10.8 31.5 8
    endloop
  endfacet
  facet normal 0 1 0
    outer loop
      vertex 8.8 31.5 6
      vertex 10.8 31.5 2.5
      vertex 8.8 31.5 3.5
    endloop
  endfacet
  facet normal 0 1 0
    outer loop
      vertex 7.8 31.5 2.5
      vertex 8.8 31.5 3.5
      vertex 10.8 31.5 2.5
    endloop
  endfacet
  facet normal 0 1 0
    outer loop
      vertex 8.8 31.5 3.5
      vertex 7.8 31.5 2.5
      vertex 7.8 31.5 3.5
    endloop
  endfacet
  facet normal 0 1 0
    outer loop
      vertex 3 31.5 8
      vertex 8.8 31.5 6
      vertex 3 31.5 6
    endloop
  endfacet
  facet normal 0 -1 0
    outer loop
      vertex 7.8 -22.5 3.5
      vertex 7.8 -22.5 2.5
      vertex 8.8 -22.5 3.5
    endloop
  endfacet
  facet normal 0 -1 0
    outer loop
      vertex 8.8 -22.5 6
      vertex 3 -22.5 8
      vertex 3 -22.5 6
    endloop
  endfacet
  facet normal 0 -1 0
    outer loop
      vertex 3 -22.5 8
      vertex 8.8 -22.5 6
      vertex 10.8 -22.5 8
    endloop
  endfacet
  facet normal 0 -1 0
    outer loop
      vertex 10.8 -22.5 2.5
      vertex 8.8 -22.5 6
      vertex 8.8 -22.5 3.5
    endloop
  endfacet
  facet normal 0 -1 0
    outer loop
      vertex 8.8 -22.5 6
      vertex 10.8 -22.5 2.5
      vertex 10.8 -22.5 8
    endloop
  endfacet
  facet normal 0 -1 0
    outer loop
      vertex 10.8 -22.5 2.5
      vertex 8.8 -22.5 3.5
      vertex 7.8 -22.5 2.5
    endloop
  endfacet
  facet normal -1 0 0
    outer loop
      vertex 8.8 -22.5 3.5
      vertex 8.8 31.5 6
      vertex 8.8 31.5 3.5
    endloop
  endfacet
  facet normal -1 -0 0
    outer loop
      vertex 8.8 31.5 6
      vertex 8.8 -22.5 3.5
      vertex 8.8 -22.5 6
    endloop
  endfacet
  facet normal -0 0 1
    outer loop
      vertex 7.8 31.5 3.5
      vertex 8.8 -22.5 3.5
      vertex 8.8 31.5 3.5
    endloop
  endfacet
  facet normal 0 0 1
    outer loop
      vertex 8.8 -22.5 3.5
      vertex 7.8 31.5 3.5
      vertex 7.8 -22.5 3.5
    endloop
  endfacet
  facet normal 0 0 -1
    outer loop
      vertex 7.8 -22.5 2.5
      vertex 10.8 31.5 2.5
      vertex 10.8 -22.5 2.5
    endloop
  endfacet
  facet normal -0 0 -1
    outer loop
      vertex 10.8 31.5 2.5
      vertex 7.8 -22.5 2.5
      vertex 7.8 31.5 2.5
    endloop
  endfacet
  facet normal -1 0 0
    outer loop
      vertex 7.8 -22.5 2.5
      vertex 7.8 31.5 3.5
      vertex 7.8 31.5 2.5
    endloop
  endfacet
  facet normal -1 -0 0
    outer loop
      vertex 7.8 31.5 3.5
      vertex 7.8 -22.5 2.5
      vertex 7.8 -22.5 3.5
    endloop
  endfacet
endsolid OpenSCAD_Model
