<?xml version="1.0" encoding="UTF-8" standalone="no"?>
<svg
   xmlns:dc="http://purl.org/dc/elements/1.1/"
   xmlns:cc="http://creativecommons.org/ns#"
   xmlns:rdf="http://www.w3.org/1999/02/22-rdf-syntax-ns#"
   xmlns:svg="http://www.w3.org/2000/svg"
   xmlns="http://www.w3.org/2000/svg"
   xmlns:sodipodi="http://sodipodi.sourceforge.net/DTD/sodipodi-0.dtd"
   xmlns:inkscape="http://www.inkscape.org/namespaces/inkscape"
   width="210mm"
   height="297mm"
   viewBox="0 0 210 297"
   version="1.1"
   id="svg8"
   inkscape:version="1.0 (4035a4fb49, 2020-05-01)"
   sodipodi:docname="pad-top.svg">
  <defs
     id="defs2" />
  <sodipodi:namedview
     id="base"
     pagecolor="#ffffff"
     bordercolor="#666666"
     borderopacity="1.0"
     inkscape:pageopacity="0.0"
     inkscape:pageshadow="2"
     inkscape:zoom="3.2145477"
     inkscape:cx="326.15991"
     inkscape:cy="627.027"
     inkscape:document-units="mm"
     inkscape:current-layer="layer1"
     inkscape:document-rotation="0"
     showgrid="false"
     inkscape:window-width="1920"
     inkscape:window-height="1050"
     inkscape:window-x="0"
     inkscape:window-y="30"
     inkscape:window-maximized="1" />
  <metadata
     id="metadata5">
    <rdf:RDF>
      <cc:Work
         rdf:about="">
        <dc:format>image/svg+xml</dc:format>
        <dc:type
           rdf:resource="http://purl.org/dc/dcmitype/StillImage" />
        <dc:title></dc:title>
      </cc:Work>
    </rdf:RDF>
  </metadata>
  <g
     inkscape:label="Layer 1"
     inkscape:groupmode="layer"
     id="layer1">
    <path
       d=""
       id="path132"
       style="stroke-width:0.123317"
       transform="scale(0.26458333)" />
    <path
       style="stroke-width:0.141091;stroke-miterlimit:4;stroke-dasharray:none"
       d="m 332.2048,557.81826 c -4.39486,-1.63741 -11.14867,-4.44988 -18.43062,-7.67499 -8.30936,-3.68016 -9.21109,-4.1771 -9.69916,-5.3452 -1.73018,-4.1409 -5.51442,-34.4349 -4.70458,-37.66157 0.11253,-0.44836 0.60951,-1.01089 1.13162,-1.28088 2.41666,-1.24971 15.58972,-4.25853 23.34961,-5.33322 5.15277,-0.71362 16.3608,-0.70967 22.99544,0.008 8.36395,0.90486 17.95312,2.79446 24.53071,4.83391 2.75595,0.85451 3.15593,1.28899 3.15593,3.42816 0,2.98358 -4.27583,31.4139 -5.29226,35.18863 -0.42482,1.57765 -1.67962,2.5839 -5.44544,4.36676 -4.959,2.34777 -22.1001,9.03927 -26.45833,10.32875 l -1.57672,0.4665 z"
       id="path961"
       transform="scale(0.26458333)" />
  </g>
</svg>
