<?xml version="1.0" encoding="UTF-8" standalone="no"?>
<svg
   xmlns:dc="http://purl.org/dc/elements/1.1/"
   xmlns:cc="http://creativecommons.org/ns#"
   xmlns:rdf="http://www.w3.org/1999/02/22-rdf-syntax-ns#"
   xmlns:svg="http://www.w3.org/2000/svg"
   xmlns="http://www.w3.org/2000/svg"
   xmlns:sodipodi="http://sodipodi.sourceforge.net/DTD/sodipodi-0.dtd"
   xmlns:inkscape="http://www.inkscape.org/namespaces/inkscape"
   sodipodi:docname="pads.svg"
   inkscape:version="1.0 (4035a4fb49, 2020-05-01)"
   id="svg8"
   version="1.1"
   viewBox="0 0 210 297"
   height="297mm"
   width="210mm">
  <defs
     id="defs2" />
  <sodipodi:namedview
     inkscape:window-maximized="1"
     inkscape:window-y="30"
     inkscape:window-x="0"
     inkscape:window-height="1050"
     inkscape:window-width="1920"
     showgrid="false"
     inkscape:document-rotation="0"
     inkscape:current-layer="layer1"
     inkscape:document-units="mm"
     inkscape:cy="627.027"
     inkscape:cx="326.15991"
     inkscape:zoom="3.2145477"
     inkscape:pageshadow="2"
     inkscape:pageopacity="0.0"
     borderopacity="1.0"
     bordercolor="#666666"
     pagecolor="#ffffff"
     id="base" />
  <metadata
     id="metadata5">
    <rdf:RDF>
      <cc:Work
         rdf:about="">
        <dc:format>image/svg+xml</dc:format>
        <dc:type
           rdf:resource="http://purl.org/dc/dcmitype/StillImage" />
        <dc:title></dc:title>
      </cc:Work>
    </rdf:RDF>
  </metadata>
  <g
     id="layer1"
     inkscape:groupmode="layer"
     inkscape:label="Layer 1">
    <path
       transform="scale(0.26458333)"
       style="stroke-width:0.123317"
       id="path132"
       d="" />
    <path
       transform="scale(0.26458333)"
       id="path957"
       d="m 327.24871,681.86802 c -2.25444,-0.39551 -7.35485,-1.82672 -9.95474,-2.79338 -11.83548,-4.40053 -22.87331,-13.42256 -28.88445,-23.60939 -1.54536,-2.61885 -3.45478,-7.13516 -3.46278,-8.19044 -0.003,-0.41276 0.44927,-1.46003 1.00534,-2.32725 0.96291,-1.50174 1.01041,-1.71768 0.99817,-4.53798 -0.0142,-3.26789 0.47881,-1.56305 -5.23386,-18.09924 -1.45772,-4.21959 -3.37148,-10.2391 -4.25281,-13.37669 -1.86437,-6.63732 -3.16136,-10.83232 -3.8521,-12.45924 -0.78006,-1.83734 -2.29749,-3.31736 -4.57935,-4.46649 -2.4564,-1.23702 -2.89805,-1.89202 -3.54078,-5.25131 -0.69277,-3.62076 -1.7039,-13.147 -1.70211,-16.03613 0.004,-6.3125 1.64135,-12.92005 7.97887,-32.19738 5.16869,-15.72198 8.3651,-23.16479 11.35194,-26.43286 1.77911,-1.94663 3.03983,-2.65366 4.73186,-2.65366 1.50942,0 2.29191,0.80644 2.83078,2.9174 0.25673,1.00573 1.31643,7.49861 2.35488,14.42862 2.86283,19.10481 3.59462,22.3221 5.51375,24.24123 1.33695,1.33695 9.03162,5.11278 17.34276,8.51022 10.71222,4.37896 13.85227,5.88223 14.20527,6.80065 0.6742,1.75409 0.88629,19.72574 0.68415,57.9703 l -0.20841,39.43012 h -4.46296 -4.46296 v 8.06169 8.06169 l 2.41091,0.18431 c 5.33372,0.40776 7.58428,1.06939 5.86326,1.72372 -0.86324,0.32821 -1.28996,0.3444 -2.67463,0.10149 z"
       style="stroke-width:0.141091;stroke-miterlimit:4;stroke-dasharray:none" />
    <path
       transform="scale(0.26458333)"
       id="path959"
       d="m 343.50294,681.88315 c -0.21387,-0.0863 -0.38886,-0.3453 -0.38886,-0.57555 0,-0.50338 2.19144,-0.96044 5.89737,-1.22998 1.44703,-0.10525 2.70553,-0.26592 2.79666,-0.35705 0.0911,-0.0911 0.21718,-3.13358 0.28011,-6.76098 0.16519,-9.52291 -0.0741,-9.91417 -5.6531,-9.2435 -1.68093,0.20207 -3.2558,0.44398 -3.49972,0.53759 -0.38278,0.14688 -0.44349,-6.59807 -0.44349,-49.27511 v -49.44529 l 4.43297,-1.65076 c 6.6214,-2.46569 17.67031,-7.22253 23.02673,-9.9136 5.39339,-2.70965 5.6601,-2.97941 6.93816,-7.01752 0.86371,-2.72895 1.36599,-5.66995 3.08642,-18.07196 1.47356,-10.62239 3.03352,-18.50206 3.76945,-19.04019 0.8185,-0.5985 1.67969,-0.49503 3.52239,0.42323 3.72097,1.85424 5.71571,4.84592 9.23005,13.84313 3.48444,8.92065 10.23209,30.15522 11.74824,36.97121 1.70578,7.66855 1.61993,14.99047 -0.29884,25.48591 -0.68445,3.74391 -0.97899,4.17382 -3.84757,5.61612 -1.48561,0.74695 -2.76173,1.63941 -3.22389,2.25464 -0.99229,1.32093 -1.96691,4.09055 -4.28102,12.1656 -2.26566,7.906 -3.99147,13.2652 -6.87864,21.36049 -2.58258,7.24125 -3.35626,10.29428 -3.35917,13.2558 -0.002,1.86377 0.14459,2.48663 0.93107,3.96047 1.14047,2.13719 1.15634,2.79999 0.12618,5.26973 -4.74835,11.38373 -16.4866,22.49363 -29.52378,27.94336 -3.01263,1.25932 -11.95231,3.72556 -13.32368,3.67568 -0.37135,-0.0135 -0.85017,-0.0952 -1.06404,-0.18147 z"
       style="stroke-width:0.141091;stroke-miterlimit:4;stroke-dasharray:none" />
    <path
       transform="scale(0.26458333)"
       id="path961"
       d="m 332.2048,557.81826 c -4.39486,-1.63741 -11.14867,-4.44988 -18.43062,-7.67499 -8.30936,-3.68016 -9.21109,-4.1771 -9.69916,-5.3452 -1.73018,-4.1409 -5.51442,-34.4349 -4.70458,-37.66157 0.11253,-0.44836 0.60951,-1.01089 1.13162,-1.28088 2.41666,-1.24971 15.58972,-4.25853 23.34961,-5.33322 5.15277,-0.71362 16.3608,-0.70967 22.99544,0.008 8.36395,0.90486 17.95312,2.79446 24.53071,4.83391 2.75595,0.85451 3.15593,1.28899 3.15593,3.42816 0,2.98358 -4.27583,31.4139 -5.29226,35.18863 -0.42482,1.57765 -1.67962,2.5839 -5.44544,4.36676 -4.959,2.34777 -22.1001,9.03927 -26.45833,10.32875 l -1.57672,0.4665 z"
       style="stroke-width:0.141091;stroke-miterlimit:4;stroke-dasharray:none" />
  </g>
</svg>
