solid OpenSCAD_Model
  facet normal 1 0 0
    outer loop
      vertex 40 19 32.7679
      vertex 40 10.7558 2
      vertex 40 19 2
    endloop
  endfacet
  facet normal -0 0 -1
    outer loop
      vertex 20 24 0
      vertex 9.55496 16.9499 0
      vertex 20 89.5 0
    endloop
  endfacet
  facet normal 0 0 -1
    outer loop
      vertex 20 89.5 0
      vertex 11.247 96.9363 0
      vertex 12 98.5 0
    endloop
  endfacet
  facet normal 0 0 -1
    outer loop
      vertex 9.55496 96.5501 0
      vertex 20 89.5 0
      vertex 9.55496 16.9499 0
    endloop
  endfacet
  facet normal 0 0 -1
    outer loop
      vertex 20 89.5 0
      vertex 9.55496 96.5501 0
      vertex 11.247 96.9363 0
    endloop
  endfacet
  facet normal 0 0 -1
    outer loop
      vertex 8.19806 15.8678 0
      vertex 9.55496 96.5501 0
      vertex 9.55496 16.9499 0
    endloop
  endfacet
  facet normal -0 0 -1
    outer loop
      vertex 9.55496 96.5501 0
      vertex 8.19806 15.8678 0
      vertex 8.19806 97.6322 0
    endloop
  endfacet
  facet normal 0 0 -1
    outer loop
      vertex 107.914 96.9363 0
      vertex 120 113.5 0
      vertex 107.914 16.5637 0
    endloop
  endfacet
  facet normal 0 0 -1
    outer loop
      vertex 120 113.5 0
      vertex 107.914 96.9363 0
      vertex 108.667 98.5 0
    endloop
  endfacet
  facet normal 0 0 -1
    outer loop
      vertex 100 24 0
      vertex 107.914 16.5637 0
      vertex 106.222 16.9499 0
    endloop
  endfacet
  facet normal 0 0 -1
    outer loop
      vertex 107.914 16.5637 0
      vertex 100 24 0
      vertex 107.914 96.9363 0
    endloop
  endfacet
  facet normal 0 0 -1
    outer loop
      vertex 100 24 0
      vertex 106.222 16.9499 0
      vertex 104.865 15.8678 0
    endloop
  endfacet
  facet normal 0 0 -1
    outer loop
      vertex 100 89.5 0
      vertex 107.914 96.9363 0
      vertex 100 24 0
    endloop
  endfacet
  facet normal 0 0 -1
    outer loop
      vertex 107.914 16.5637 0
      vertex 120 0 0
      vertex 108.667 15 0
    endloop
  endfacet
  facet normal 0 0 -1
    outer loop
      vertex 120 0 0
      vertex 107.914 13.4363 0
      vertex 108.667 15 0
    endloop
  endfacet
  facet normal 0 0 -1
    outer loop
      vertex 120 0 0
      vertex 106.222 13.0501 0
      vertex 107.914 13.4363 0
    endloop
  endfacet
  facet normal 0 0 -1
    outer loop
      vertex 0 0 0
      vertex 106.222 13.0501 0
      vertex 120 0 0
    endloop
  endfacet
  facet normal 0 0 -1
    outer loop
      vertex 100 24 0
      vertex 104.865 15.8678 0
      vertex 104.865 14.1322 0
    endloop
  endfacet
  facet normal 0 0 -1
    outer loop
      vertex 107.914 96.9363 0
      vertex 100 89.5 0
      vertex 106.222 96.5501 0
    endloop
  endfacet
  facet normal -0 0 -1
    outer loop
      vertex 106.222 96.5501 0
      vertex 100 89.5 0
      vertex 104.865 97.6322 0
    endloop
  endfacet
  facet normal 0 0 -1
    outer loop
      vertex 104.865 14.1322 0
      vertex 20 24 0
      vertex 100 24 0
    endloop
  endfacet
  facet normal -0 0 -1
    outer loop
      vertex 106.222 13.0501 0
      vertex 0 0 0
      vertex 104.865 14.1322 0
    endloop
  endfacet
  facet normal 0 0 -1
    outer loop
      vertex 11.247 16.5637 0
      vertex 20 24 0
      vertex 12 15 0
    endloop
  endfacet
  facet normal -0 0 -1
    outer loop
      vertex 104.865 14.1322 0
      vertex 11.247 13.4363 0
      vertex 20 24 0
    endloop
  endfacet
  facet normal 0 0 -1
    outer loop
      vertex 20 24 0
      vertex 11.247 13.4363 0
      vertex 12 15 0
    endloop
  endfacet
  facet normal 0 0 -1
    outer loop
      vertex 104.865 14.1322 0
      vertex 0 0 0
      vertex 11.247 13.4363 0
    endloop
  endfacet
  facet normal 0 0 -1
    outer loop
      vertex 0 0 0
      vertex 8.19806 15.8678 0
      vertex 8.19806 14.1322 0
    endloop
  endfacet
  facet normal -0 0 -1
    outer loop
      vertex 8.19806 15.8678 0
      vertex 0 0 0
      vertex 8.19806 97.6322 0
    endloop
  endfacet
  facet normal 0 0 -1
    outer loop
      vertex 0 113.5 0
      vertex 8.19806 97.6322 0
      vertex 0 0 0
    endloop
  endfacet
  facet normal -0 0 -1
    outer loop
      vertex 9.55496 13.0501 0
      vertex 0 0 0
      vertex 8.19806 14.1322 0
    endloop
  endfacet
  facet normal 0 0 -1
    outer loop
      vertex 11.247 13.4363 0
      vertex 0 0 0
      vertex 9.55496 13.0501 0
    endloop
  endfacet
  facet normal 0 0 -1
    outer loop
      vertex 120 0 0
      vertex 107.914 16.5637 0
      vertex 120 113.5 0
    endloop
  endfacet
  facet normal 0 0 -1
    outer loop
      vertex 107.914 100.064 0
      vertex 120 113.5 0
      vertex 108.667 98.5 0
    endloop
  endfacet
  facet normal 0 0 -1
    outer loop
      vertex 106.222 100.45 0
      vertex 120 113.5 0
      vertex 107.914 100.064 0
    endloop
  endfacet
  facet normal 0 0 -1
    outer loop
      vertex 0 113.5 0
      vertex 106.222 100.45 0
      vertex 104.865 99.3678 0
    endloop
  endfacet
  facet normal -0 0 -1
    outer loop
      vertex 104.865 97.6322 0
      vertex 100 89.5 0
      vertex 104.865 99.3678 0
    endloop
  endfacet
  facet normal 0 0 -1
    outer loop
      vertex 20 89.5 0
      vertex 104.865 99.3678 0
      vertex 100 89.5 0
    endloop
  endfacet
  facet normal 0 0 -1
    outer loop
      vertex 11.247 100.064 0
      vertex 104.865 99.3678 0
      vertex 20 89.5 0
    endloop
  endfacet
  facet normal 0 0 -1
    outer loop
      vertex 9.55496 16.9499 0
      vertex 20 24 0
      vertex 11.247 16.5637 0
    endloop
  endfacet
  facet normal 0 0 -1
    outer loop
      vertex 11.247 100.064 0
      vertex 20 89.5 0
      vertex 12 98.5 0
    endloop
  endfacet
  facet normal 0 0 -1
    outer loop
      vertex 0 113.5 0
      vertex 104.865 99.3678 0
      vertex 11.247 100.064 0
    endloop
  endfacet
  facet normal 0 0 -1
    outer loop
      vertex 0 113.5 0
      vertex 11.247 100.064 0
      vertex 9.55496 100.45 0
    endloop
  endfacet
  facet normal 0 0 -1
    outer loop
      vertex 106.222 100.45 0
      vertex 0 113.5 0
      vertex 120 113.5 0
    endloop
  endfacet
  facet normal 0 0 -1
    outer loop
      vertex 8.19806 99.3678 0
      vertex 0 113.5 0
      vertex 9.55496 100.45 0
    endloop
  endfacet
  facet normal 0 0 -1
    outer loop
      vertex 8.19806 97.6322 0
      vertex 0 113.5 0
      vertex 8.19806 99.3678 0
    endloop
  endfacet
  facet normal -1 0 0
    outer loop
      vertex 20 19 2
      vertex 20 10.7558 2
      vertex 20 19 32.7679
    endloop
  endfacet
  facet normal 0 -0.965926 0.258818
    outer loop
      vertex 20 10.7558 2
      vertex 40 19 32.7679
      vertex 20 19 32.7679
    endloop
  endfacet
  facet normal 0 -0.965926 0.258818
    outer loop
      vertex 40 19 32.7679
      vertex 20 10.7558 2
      vertex 40 10.7558 2
    endloop
  endfacet
  facet normal 1 0 0
    outer loop
      vertex 80 19 32.7679
      vertex 80 10.7558 2
      vertex 80 19 2
    endloop
  endfacet
  facet normal -1 0 0
    outer loop
      vertex 60 19 2
      vertex 60 10.7558 2
      vertex 60 19 32.7679
    endloop
  endfacet
  facet normal 0 -0.965926 0.258818
    outer loop
      vertex 60 10.7558 2
      vertex 80 19 32.7679
      vertex 60 19 32.7679
    endloop
  endfacet
  facet normal 0 -0.965926 0.258818
    outer loop
      vertex 80 19 32.7679
      vertex 60 10.7558 2
      vertex 80 10.7558 2
    endloop
  endfacet
  facet normal 1 0 0
    outer loop
      vertex 40 102.744 2
      vertex 40 94.5 32.7679
      vertex 40 94.5 2
    endloop
  endfacet
  facet normal -1 0 0
    outer loop
      vertex 20 94.5 32.7679
      vertex 20 102.744 2
      vertex 20 94.5 2
    endloop
  endfacet
  facet normal 0 0.965928 0.258812
    outer loop
      vertex 40 102.744 2
      vertex 20 94.5 32.7679
      vertex 40 94.5 32.7679
    endloop
  endfacet
  facet normal 0 0.965928 0.258812
    outer loop
      vertex 20 94.5 32.7679
      vertex 40 102.744 2
      vertex 20 102.744 2
    endloop
  endfacet
  facet normal 1 0 0
    outer loop
      vertex 80 102.744 2
      vertex 80 94.5 32.7679
      vertex 80 94.5 2
    endloop
  endfacet
  facet normal -1 0 0
    outer loop
      vertex 60 94.5 32.7679
      vertex 60 102.744 2
      vertex 60 94.5 2
    endloop
  endfacet
  facet normal 0 0.965928 0.258812
    outer loop
      vertex 80 102.744 2
      vertex 60 94.5 32.7679
      vertex 80 94.5 32.7679
    endloop
  endfacet
  facet normal 0 0.965928 0.258812
    outer loop
      vertex 60 94.5 32.7679
      vertex 80 102.744 2
      vertex 60 102.744 2
    endloop
  endfacet
  facet normal 1 -0 0
    outer loop
      vertex 120 0 2
      vertex 120 113.5 0
      vertex 120 113.5 2
    endloop
  endfacet
  facet normal 1 0 0
    outer loop
      vertex 120 113.5 0
      vertex 120 0 2
      vertex 120 0 0
    endloop
  endfacet
  facet normal 0 0 -1
    outer loop
      vertex 20 24 2
      vertex 21 89.5 2
      vertex 21 24 2
    endloop
  endfacet
  facet normal -0 0 -1
    outer loop
      vertex 21 89.5 2
      vertex 20 24 2
      vertex 20 89.5 2
    endloop
  endfacet
  facet normal 0 0 1
    outer loop
      vertex 20 19 2
      vertex 12 15 2
      vertex 20 10.7558 2
    endloop
  endfacet
  facet normal 0 0 1
    outer loop
      vertex 20 19 2
      vertex 11.247 16.5637 2
      vertex 12 15 2
    endloop
  endfacet
  facet normal -0 0 1
    outer loop
      vertex 10.7558 19 2
      vertex 11.247 16.5637 2
      vertex 20 19 2
    endloop
  endfacet
  facet normal 0 0 1
    outer loop
      vertex 10.7558 19 2
      vertex 9.55496 16.9499 2
      vertex 11.247 16.5637 2
    endloop
  endfacet
  facet normal 0 0 1
    outer loop
      vertex 10.7558 24 2
      vertex 9.55496 16.9499 2
      vertex 10.7558 19 2
    endloop
  endfacet
  facet normal 0 0 1
    outer loop
      vertex 10.7558 89.5 2
      vertex 0 113.5 2
      vertex 10.7558 24 2
    endloop
  endfacet
  facet normal 0 0 1
    outer loop
      vertex 10.7558 24 2
      vertex 8.19806 15.8678 2
      vertex 9.55496 16.9499 2
    endloop
  endfacet
  facet normal 0 0 1
    outer loop
      vertex 60 19 2
      vertex 40 19 2
      vertex 60 10.7558 2
    endloop
  endfacet
  facet normal 0 0 1
    outer loop
      vertex 100 94.5 2
      vertex 80 102.744 2
      vertex 80 94.5 2
    endloop
  endfacet
  facet normal 0 0 1
    outer loop
      vertex 60 94.5 2
      vertex 40 102.744 2
      vertex 40 94.5 2
    endloop
  endfacet
  facet normal -0 0 1
    outer loop
      vertex 11.247 96.9363 2
      vertex 20 94.5 2
      vertex 12 98.5 2
    endloop
  endfacet
  facet normal 0 0 1
    outer loop
      vertex 11.247 96.9363 2
      vertex 10.7558 94.5 2
      vertex 20 94.5 2
    endloop
  endfacet
  facet normal 0 0 1
    outer loop
      vertex 8.19806 97.6322 2
      vertex 10.7558 94.5 2
      vertex 9.55496 96.5501 2
    endloop
  endfacet
  facet normal 0 0 1
    outer loop
      vertex 10.7558 94.5 2
      vertex 8.19806 97.6322 2
      vertex 10.7558 89.5 2
    endloop
  endfacet
  facet normal 0 0 1
    outer loop
      vertex 0 113.5 2
      vertex 10.7558 89.5 2
      vertex 8.19806 97.6322 2
    endloop
  endfacet
  facet normal -0 0 1
    outer loop
      vertex 9.55496 96.5501 2
      vertex 10.7558 94.5 2
      vertex 11.247 96.9363 2
    endloop
  endfacet
  facet normal -0 0 1
    outer loop
      vertex 10.7558 89.5 2
      vertex 19 24 2
      vertex 19 89.5 2
    endloop
  endfacet
  facet normal 0 0 1
    outer loop
      vertex 19 24 2
      vertex 10.7558 89.5 2
      vertex 10.7558 24 2
    endloop
  endfacet
  facet normal 0 0 1
    outer loop
      vertex 96 9 2
      vertex 104.865 14.1322 2
      vertex 96 12 2
    endloop
  endfacet
  facet normal 0 0 1
    outer loop
      vertex 100 19 2
      vertex 84 12 2
      vertex 96 12 2
    endloop
  endfacet
  facet normal 0 0 1
    outer loop
      vertex 80 10.7558 2
      vertex 84 12 2
      vertex 80 19 2
    endloop
  endfacet
  facet normal -0 0 1
    outer loop
      vertex 80 19 2
      vertex 84 12 2
      vertex 100 19 2
    endloop
  endfacet
  facet normal -0 0 1
    outer loop
      vertex 21 24 2
      vertex 100 21 2
      vertex 100 24 2
    endloop
  endfacet
  facet normal 0 0 1
    outer loop
      vertex 100 21 2
      vertex 21 24 2
      vertex 21 21 2
    endloop
  endfacet
  facet normal -0 0 1
    outer loop
      vertex 21 92.5 2
      vertex 100 89.5 2
      vertex 100 92.5 2
    endloop
  endfacet
  facet normal 0 0 1
    outer loop
      vertex 100 89.5 2
      vertex 21 92.5 2
      vertex 21 89.5 2
    endloop
  endfacet
  facet normal -0 0 1
    outer loop
      vertex 107.914 16.5637 2
      vertex 120 0 2
      vertex 107.914 96.9363 2
    endloop
  endfacet
  facet normal 0 0 1
    outer loop
      vertex 120 0 2
      vertex 107.914 16.5637 2
      vertex 108.667 15 2
    endloop
  endfacet
  facet normal 0 0 1
    outer loop
      vertex 100 89.5 2
      vertex 107.914 96.9363 2
      vertex 106.222 96.5501 2
    endloop
  endfacet
  facet normal 0 0 1
    outer loop
      vertex 107.914 96.9363 2
      vertex 100 89.5 2
      vertex 107.914 16.5637 2
    endloop
  endfacet
  facet normal 0 0 1
    outer loop
      vertex 100 94.5 2
      vertex 106.222 96.5501 2
      vertex 104.865 97.6322 2
    endloop
  endfacet
  facet normal -0 0 1
    outer loop
      vertex 100 24 2
      vertex 107.914 16.5637 2
      vertex 100 89.5 2
    endloop
  endfacet
  facet normal 0 0 1
    outer loop
      vertex 107.914 96.9363 2
      vertex 120 113.5 2
      vertex 108.667 98.5 2
    endloop
  endfacet
  facet normal 0 0 1
    outer loop
      vertex 120 113.5 2
      vertex 107.914 100.064 2
      vertex 108.667 98.5 2
    endloop
  endfacet
  facet normal 0 0 1
    outer loop
      vertex 120 113.5 2
      vertex 106.222 100.45 2
      vertex 107.914 100.064 2
    endloop
  endfacet
  facet normal -0 0 1
    outer loop
      vertex 80 102.744 2
      vertex 106.222 100.45 2
      vertex 120 113.5 2
    endloop
  endfacet
  facet normal 0 0 1
    outer loop
      vertex 100 94.5 2
      vertex 104.865 97.6322 2
      vertex 104.865 99.3678 2
    endloop
  endfacet
  facet normal 0 0 1
    outer loop
      vertex 107.914 16.5637 2
      vertex 100 24 2
      vertex 106.222 16.9499 2
    endloop
  endfacet
  facet normal 0 0 1
    outer loop
      vertex 106.222 96.5501 2
      vertex 100 94.5 2
      vertex 100 92.5 2
    endloop
  endfacet
  facet normal 0 0 1
    outer loop
      vertex 104.865 99.3678 2
      vertex 80 102.744 2
      vertex 100 94.5 2
    endloop
  endfacet
  facet normal 0 0 1
    outer loop
      vertex 106.222 100.45 2
      vertex 80 102.744 2
      vertex 104.865 99.3678 2
    endloop
  endfacet
  facet normal 0 0 1
    outer loop
      vertex 120 113.5 2
      vertex 60 102.744 2
      vertex 80 102.744 2
    endloop
  endfacet
  facet normal 0 0 1
    outer loop
      vertex 60 102.744 2
      vertex 40 102.744 2
      vertex 60 94.5 2
    endloop
  endfacet
  facet normal -0 0 1
    outer loop
      vertex 0 113.5 2
      vertex 60 102.744 2
      vertex 120 113.5 2
    endloop
  endfacet
  facet normal 0 0 1
    outer loop
      vertex 60 102.744 2
      vertex 0 113.5 2
      vertex 40 102.744 2
    endloop
  endfacet
  facet normal 0 0 1
    outer loop
      vertex 20 102.744 2
      vertex 12 98.5 2
      vertex 20 94.5 2
    endloop
  endfacet
  facet normal 0 0 1
    outer loop
      vertex 20 102.744 2
      vertex 11.247 100.064 2
      vertex 12 98.5 2
    endloop
  endfacet
  facet normal 0 0 1
    outer loop
      vertex 20 102.744 2
      vertex 9.55496 100.45 2
      vertex 11.247 100.064 2
    endloop
  endfacet
  facet normal 0 0 1
    outer loop
      vertex 0 113.5 2
      vertex 8.19806 97.6322 2
      vertex 8.19806 99.3678 2
    endloop
  endfacet
  facet normal 0 0 1
    outer loop
      vertex 0 0 2
      vertex 10.7558 24 2
      vertex 0 113.5 2
    endloop
  endfacet
  facet normal 0 0 1
    outer loop
      vertex 10.7558 24 2
      vertex 0 0 2
      vertex 8.19806 15.8678 2
    endloop
  endfacet
  facet normal 0 0 1
    outer loop
      vertex 9.55496 100.45 2
      vertex 0 113.5 2
      vertex 8.19806 99.3678 2
    endloop
  endfacet
  facet normal 0 0 1
    outer loop
      vertex 20 102.744 2
      vertex 0 113.5 2
      vertex 9.55496 100.45 2
    endloop
  endfacet
  facet normal 0 0 1
    outer loop
      vertex 40 102.744 2
      vertex 0 113.5 2
      vertex 20 102.744 2
    endloop
  endfacet
  facet normal 0 0 1
    outer loop
      vertex 120 113.5 2
      vertex 107.914 96.9363 2
      vertex 120 0 2
    endloop
  endfacet
  facet normal -0 0 1
    outer loop
      vertex 107.914 13.4363 2
      vertex 120 0 2
      vertex 108.667 15 2
    endloop
  endfacet
  facet normal -0 0 1
    outer loop
      vertex 106.222 13.0501 2
      vertex 120 0 2
      vertex 107.914 13.4363 2
    endloop
  endfacet
  facet normal 0 0 1
    outer loop
      vertex 97 5 2
      vertex 106.222 13.0501 2
      vertex 104.865 14.1322 2
    endloop
  endfacet
  facet normal 0 0 1
    outer loop
      vertex 106.222 96.5501 2
      vertex 100 92.5 2
      vertex 100 89.5 2
    endloop
  endfacet
  facet normal -0 0 1
    outer loop
      vertex 100 21 2
      vertex 106.222 16.9499 2
      vertex 100 24 2
    endloop
  endfacet
  facet normal -0 0 1
    outer loop
      vertex 100 19 2
      vertex 106.222 16.9499 2
      vertex 100 21 2
    endloop
  endfacet
  facet normal 0 0 1
    outer loop
      vertex 106.222 16.9499 2
      vertex 100 19 2
      vertex 104.865 15.8678 2
    endloop
  endfacet
  facet normal 0 0 1
    outer loop
      vertex 104.865 15.8678 2
      vertex 100 19 2
      vertex 104.865 14.1322 2
    endloop
  endfacet
  facet normal 0 0 1
    outer loop
      vertex 96 12 2
      vertex 104.865 14.1322 2
      vertex 100 19 2
    endloop
  endfacet
  facet normal 0 0 1
    outer loop
      vertex 106.222 13.0501 2
      vertex 97 5 2
      vertex 97 2 2
    endloop
  endfacet
  facet normal 0 0 1
    outer loop
      vertex 106.222 13.0501 2
      vertex 97 2 2
      vertex 120 0 2
    endloop
  endfacet
  facet normal -0 0 1
    outer loop
      vertex 85 2 2
      vertex 120 0 2
      vertex 97 2 2
    endloop
  endfacet
  facet normal 0 0 1
    outer loop
      vertex 84 12 2
      vertex 80 10.7558 2
      vertex 84 9 2
    endloop
  endfacet
  facet normal 0 0 1
    outer loop
      vertex 84 9 2
      vertex 80 10.7558 2
      vertex 85 2 2
    endloop
  endfacet
  facet normal -0 0 1
    outer loop
      vertex 60 10.7558 2
      vertex 85 2 2
      vertex 80 10.7558 2
    endloop
  endfacet
  facet normal 0 0 1
    outer loop
      vertex 40 10.7558 2
      vertex 60 10.7558 2
      vertex 40 19 2
    endloop
  endfacet
  facet normal -0 0 1
    outer loop
      vertex 40 10.7558 2
      vertex 85 2 2
      vertex 60 10.7558 2
    endloop
  endfacet
  facet normal 0 0 1
    outer loop
      vertex 0 0 2
      vertex 40 10.7558 2
      vertex 20 10.7558 2
    endloop
  endfacet
  facet normal -0 0 1
    outer loop
      vertex 11.247 13.4363 2
      vertex 20 10.7558 2
      vertex 12 15 2
    endloop
  endfacet
  facet normal -0 0 1
    outer loop
      vertex 9.55496 13.0501 2
      vertex 20 10.7558 2
      vertex 11.247 13.4363 2
    endloop
  endfacet
  facet normal 0 0 1
    outer loop
      vertex 85 2 2
      vertex 0 0 2
      vertex 120 0 2
    endloop
  endfacet
  facet normal 0 0 1
    outer loop
      vertex 40 10.7558 2
      vertex 0 0 2
      vertex 85 2 2
    endloop
  endfacet
  facet normal 0 0 1
    outer loop
      vertex 9.55496 13.0501 2
      vertex 0 0 2
      vertex 20 10.7558 2
    endloop
  endfacet
  facet normal 0 0 1
    outer loop
      vertex 8.19806 14.1322 2
      vertex 0 0 2
      vertex 9.55496 13.0501 2
    endloop
  endfacet
  facet normal 0 0 1
    outer loop
      vertex 8.19806 15.8678 2
      vertex 0 0 2
      vertex 8.19806 14.1322 2
    endloop
  endfacet
  facet normal 0 0 1
    outer loop
      vertex 104.865 14.1322 2
      vertex 96 9 2
      vertex 97 5 2
    endloop
  endfacet
  facet normal 0 0 1
    outer loop
      vertex 96 9 2
      vertex 85 5 2
      vertex 97 5 2
    endloop
  endfacet
  facet normal 0 0 1
    outer loop
      vertex 85 5 2
      vertex 84 9 2
      vertex 85 2 2
    endloop
  endfacet
  facet normal -0 0 1
    outer loop
      vertex 84 9 2
      vertex 85 5 2
      vertex 96 9 2
    endloop
  endfacet
  facet normal -1 0 0
    outer loop
      vertex 0 0 0
      vertex 0 113.5 2
      vertex 0 113.5 0
    endloop
  endfacet
  facet normal -1 -0 0
    outer loop
      vertex 0 113.5 2
      vertex 0 0 0
      vertex 0 0 2
    endloop
  endfacet
  facet normal 0 1 -0
    outer loop
      vertex 120 113.5 0
      vertex 0 113.5 2
      vertex 120 113.5 2
    endloop
  endfacet
  facet normal 0 1 0
    outer loop
      vertex 0 113.5 2
      vertex 120 113.5 0
      vertex 0 113.5 0
    endloop
  endfacet
  facet normal 0 -1 0
    outer loop
      vertex 0 0 0
      vertex 120 0 2
      vertex 0 0 2
    endloop
  endfacet
  facet normal 0 -1 -0
    outer loop
      vertex 120 0 2
      vertex 0 0 0
      vertex 120 0 0
    endloop
  endfacet
  facet normal -1 0 0
    outer loop
      vertex 100 24 0
      vertex 100 89.5 2
      vertex 100 89.5 0
    endloop
  endfacet
  facet normal -1 -0 0
    outer loop
      vertex 100 89.5 2
      vertex 100 24 0
      vertex 100 24 2
    endloop
  endfacet
  facet normal 1 -0 0
    outer loop
      vertex 20 24 2
      vertex 20 89.5 0
      vertex 20 89.5 2
    endloop
  endfacet
  facet normal 1 0 0
    outer loop
      vertex 20 89.5 0
      vertex 20 24 2
      vertex 20 24 0
    endloop
  endfacet
  facet normal 0 -1 0
    outer loop
      vertex 20 89.5 0
      vertex 21 89.5 2
      vertex 20 89.5 2
    endloop
  endfacet
  facet normal 0 -1 0
    outer loop
      vertex 100 89.5 0
      vertex 21 89.5 2
      vertex 20 89.5 0
    endloop
  endfacet
  facet normal 0 -1 0
    outer loop
      vertex 21 89.5 2
      vertex 100 89.5 0
      vertex 100 89.5 2
    endloop
  endfacet
  facet normal 0 1 -0
    outer loop
      vertex 100 24 0
      vertex 21 24 2
      vertex 100 24 2
    endloop
  endfacet
  facet normal 0 1 0
    outer loop
      vertex 20 24 0
      vertex 21 24 2
      vertex 100 24 0
    endloop
  endfacet
  facet normal 0 1 0
    outer loop
      vertex 21 24 2
      vertex 20 24 0
      vertex 20 24 2
    endloop
  endfacet
  facet normal -0.222523 -0.974928 0
    outer loop
      vertex 9.55496 16.9499 0
      vertex 11.247 16.5637 2
      vertex 9.55496 16.9499 2
    endloop
  endfacet
  facet normal -0.222523 -0.974928 -0
    outer loop
      vertex 11.247 16.5637 2
      vertex 9.55496 16.9499 0
      vertex 11.247 16.5637 0
    endloop
  endfacet
  facet normal -0.900977 -0.433866 0
    outer loop
      vertex 12 15 0
      vertex 11.247 16.5637 2
      vertex 11.247 16.5637 0
    endloop
  endfacet
  facet normal -0.900977 -0.433866 0
    outer loop
      vertex 11.247 16.5637 2
      vertex 12 15 0
      vertex 12 15 2
    endloop
  endfacet
  facet normal -0.900977 0.433866 0
    outer loop
      vertex 11.247 13.4363 0
      vertex 12 15 2
      vertex 12 15 0
    endloop
  endfacet
  facet normal -0.900977 0.433866 0
    outer loop
      vertex 12 15 2
      vertex 11.247 13.4363 0
      vertex 11.247 13.4363 2
    endloop
  endfacet
  facet normal 0.623493 0.781829 -0
    outer loop
      vertex 9.55496 13.0501 0
      vertex 8.19806 14.1322 2
      vertex 9.55496 13.0501 2
    endloop
  endfacet
  facet normal 0.623493 0.781829 0
    outer loop
      vertex 8.19806 14.1322 2
      vertex 9.55496 13.0501 0
      vertex 8.19806 14.1322 0
    endloop
  endfacet
  facet normal -0.222523 0.974928 0
    outer loop
      vertex 11.247 13.4363 0
      vertex 9.55496 13.0501 2
      vertex 11.247 13.4363 2
    endloop
  endfacet
  facet normal -0.222523 0.974928 0
    outer loop
      vertex 9.55496 13.0501 2
      vertex 11.247 13.4363 0
      vertex 9.55496 13.0501 0
    endloop
  endfacet
  facet normal 1 -0 0
    outer loop
      vertex 8.19806 14.1322 2
      vertex 8.19806 15.8678 0
      vertex 8.19806 15.8678 2
    endloop
  endfacet
  facet normal 1 0 0
    outer loop
      vertex 8.19806 15.8678 0
      vertex 8.19806 14.1322 2
      vertex 8.19806 14.1322 0
    endloop
  endfacet
  facet normal 0.623493 -0.781829 0
    outer loop
      vertex 8.19806 15.8678 0
      vertex 9.55496 16.9499 2
      vertex 8.19806 15.8678 2
    endloop
  endfacet
  facet normal 0.623493 -0.781829 0
    outer loop
      vertex 9.55496 16.9499 2
      vertex 8.19806 15.8678 0
      vertex 9.55496 16.9499 0
    endloop
  endfacet
  facet normal -0.222413 -0.974953 0
    outer loop
      vertex 9.55496 100.45 0
      vertex 11.247 100.064 2
      vertex 9.55496 100.45 2
    endloop
  endfacet
  facet normal -0.222413 -0.974953 -0
    outer loop
      vertex 11.247 100.064 2
      vertex 9.55496 100.45 0
      vertex 11.247 100.064 0
    endloop
  endfacet
  facet normal -0.90101 -0.433798 0
    outer loop
      vertex 12 98.5 0
      vertex 11.247 100.064 2
      vertex 11.247 100.064 0
    endloop
  endfacet
  facet normal -0.90101 -0.433798 0
    outer loop
      vertex 11.247 100.064 2
      vertex 12 98.5 0
      vertex 12 98.5 2
    endloop
  endfacet
  facet normal -0.900977 0.433866 0
    outer loop
      vertex 11.247 96.9363 0
      vertex 12 98.5 2
      vertex 12 98.5 0
    endloop
  endfacet
  facet normal -0.900977 0.433866 0
    outer loop
      vertex 12 98.5 2
      vertex 11.247 96.9363 0
      vertex 11.247 96.9363 2
    endloop
  endfacet
  facet normal 0.623493 0.781829 -0
    outer loop
      vertex 9.55496 96.5501 0
      vertex 8.19806 97.6322 2
      vertex 9.55496 96.5501 2
    endloop
  endfacet
  facet normal 0.623493 0.781829 0
    outer loop
      vertex 8.19806 97.6322 2
      vertex 9.55496 96.5501 0
      vertex 8.19806 97.6322 0
    endloop
  endfacet
  facet normal -0.222523 0.974928 0
    outer loop
      vertex 11.247 96.9363 0
      vertex 9.55496 96.5501 2
      vertex 11.247 96.9363 2
    endloop
  endfacet
  facet normal -0.222523 0.974928 0
    outer loop
      vertex 9.55496 96.5501 2
      vertex 11.247 96.9363 0
      vertex 9.55496 96.5501 0
    endloop
  endfacet
  facet normal 1 -0 0
    outer loop
      vertex 8.19806 97.6322 2
      vertex 8.19806 99.3678 0
      vertex 8.19806 99.3678 2
    endloop
  endfacet
  facet normal 1 0 0
    outer loop
      vertex 8.19806 99.3678 0
      vertex 8.19806 97.6322 2
      vertex 8.19806 97.6322 0
    endloop
  endfacet
  facet normal 0.623528 -0.781801 0
    outer loop
      vertex 8.19806 99.3678 0
      vertex 9.55496 100.45 2
      vertex 8.19806 99.3678 2
    endloop
  endfacet
  facet normal 0.623528 -0.781801 0
    outer loop
      vertex 9.55496 100.45 2
      vertex 8.19806 99.3678 0
      vertex 9.55496 100.45 0
    endloop
  endfacet
  facet normal -0.222528 -0.974926 0
    outer loop
      vertex 106.222 16.9499 0
      vertex 107.914 16.5637 2
      vertex 106.222 16.9499 2
    endloop
  endfacet
  facet normal -0.222528 -0.974926 -0
    outer loop
      vertex 107.914 16.5637 2
      vertex 106.222 16.9499 0
      vertex 107.914 16.5637 0
    endloop
  endfacet
  facet normal -0.900977 -0.433866 0
    outer loop
      vertex 108.667 15 0
      vertex 107.914 16.5637 2
      vertex 107.914 16.5637 0
    endloop
  endfacet
  facet normal -0.900977 -0.433866 0
    outer loop
      vertex 107.914 16.5637 2
      vertex 108.667 15 0
      vertex 108.667 15 2
    endloop
  endfacet
  facet normal -0.900977 0.433866 0
    outer loop
      vertex 107.914 13.4363 0
      vertex 108.667 15 2
      vertex 108.667 15 0
    endloop
  endfacet
  facet normal -0.900977 0.433866 0
    outer loop
      vertex 108.667 15 2
      vertex 107.914 13.4363 0
      vertex 107.914 13.4363 2
    endloop
  endfacet
  facet normal 0.623465 -0.781852 0
    outer loop
      vertex 104.865 15.8678 0
      vertex 106.222 16.9499 2
      vertex 104.865 15.8678 2
    endloop
  endfacet
  facet normal 0.623465 -0.781852 0
    outer loop
      vertex 106.222 16.9499 2
      vertex 104.865 15.8678 0
      vertex 106.222 16.9499 0
    endloop
  endfacet
  facet normal 0.623465 0.781852 -0
    outer loop
      vertex 106.222 13.0501 0
      vertex 104.865 14.1322 2
      vertex 106.222 13.0501 2
    endloop
  endfacet
  facet normal 0.623465 0.781852 0
    outer loop
      vertex 104.865 14.1322 2
      vertex 106.222 13.0501 0
      vertex 104.865 14.1322 0
    endloop
  endfacet
  facet normal -0.222528 0.974926 0
    outer loop
      vertex 107.914 13.4363 0
      vertex 106.222 13.0501 2
      vertex 107.914 13.4363 2
    endloop
  endfacet
  facet normal -0.222528 0.974926 0
    outer loop
      vertex 106.222 13.0501 2
      vertex 107.914 13.4363 0
      vertex 106.222 13.0501 0
    endloop
  endfacet
  facet normal 1 -0 0
    outer loop
      vertex 104.865 14.1322 2
      vertex 104.865 15.8678 0
      vertex 104.865 15.8678 2
    endloop
  endfacet
  facet normal 1 0 0
    outer loop
      vertex 104.865 15.8678 0
      vertex 104.865 14.1322 2
      vertex 104.865 14.1322 0
    endloop
  endfacet
  facet normal -0.222418 -0.974951 0
    outer loop
      vertex 106.222 100.45 0
      vertex 107.914 100.064 2
      vertex 106.222 100.45 2
    endloop
  endfacet
  facet normal -0.222418 -0.974951 -0
    outer loop
      vertex 107.914 100.064 2
      vertex 106.222 100.45 0
      vertex 107.914 100.064 0
    endloop
  endfacet
  facet normal -0.90101 -0.433798 0
    outer loop
      vertex 108.667 98.5 0
      vertex 107.914 100.064 2
      vertex 107.914 100.064 0
    endloop
  endfacet
  facet normal -0.90101 -0.433798 0
    outer loop
      vertex 107.914 100.064 2
      vertex 108.667 98.5 0
      vertex 108.667 98.5 2
    endloop
  endfacet
  facet normal -0.900977 0.433866 0
    outer loop
      vertex 107.914 96.9363 0
      vertex 108.667 98.5 2
      vertex 108.667 98.5 0
    endloop
  endfacet
  facet normal -0.900977 0.433866 0
    outer loop
      vertex 108.667 98.5 2
      vertex 107.914 96.9363 0
      vertex 107.914 96.9363 2
    endloop
  endfacet
  facet normal 0.6235 -0.781823 0
    outer loop
      vertex 104.865 99.3678 0
      vertex 106.222 100.45 2
      vertex 104.865 99.3678 2
    endloop
  endfacet
  facet normal 0.6235 -0.781823 0
    outer loop
      vertex 106.222 100.45 2
      vertex 104.865 99.3678 0
      vertex 106.222 100.45 0
    endloop
  endfacet
  facet normal 0.623465 0.781852 -0
    outer loop
      vertex 106.222 96.5501 0
      vertex 104.865 97.6322 2
      vertex 106.222 96.5501 2
    endloop
  endfacet
  facet normal 0.623465 0.781852 0
    outer loop
      vertex 104.865 97.6322 2
      vertex 106.222 96.5501 0
      vertex 104.865 97.6322 0
    endloop
  endfacet
  facet normal -0.222528 0.974926 0
    outer loop
      vertex 107.914 96.9363 0
      vertex 106.222 96.5501 2
      vertex 107.914 96.9363 2
    endloop
  endfacet
  facet normal -0.222528 0.974926 0
    outer loop
      vertex 106.222 96.5501 2
      vertex 107.914 96.9363 0
      vertex 106.222 96.5501 0
    endloop
  endfacet
  facet normal 1 -0 0
    outer loop
      vertex 104.865 97.6322 2
      vertex 104.865 99.3678 0
      vertex 104.865 99.3678 2
    endloop
  endfacet
  facet normal 1 0 0
    outer loop
      vertex 104.865 99.3678 0
      vertex 104.865 97.6322 2
      vertex 104.865 97.6322 0
    endloop
  endfacet
  facet normal 1 0 0
    outer loop
      vertex 100 94.5 40.5
      vertex 100 92.5 38.5
      vertex 100 94.5 2
    endloop
  endfacet
  facet normal 1 0 0
    outer loop
      vertex 100 94.5 40.5
      vertex 100 21 38.5
      vertex 100 92.5 38.5
    endloop
  endfacet
  facet normal 1 -0 0
    outer loop
      vertex 100 19 40.5
      vertex 100 21 38.5
      vertex 100 94.5 40.5
    endloop
  endfacet
  facet normal 1 0 0
    outer loop
      vertex 100 19 2
      vertex 100 21 38.5
      vertex 100 19 40.5
    endloop
  endfacet
  facet normal 1 0 0
    outer loop
      vertex 100 21 38.5
      vertex 100 19 2
      vertex 100 21 2
    endloop
  endfacet
  facet normal 1 0 0
    outer loop
      vertex 100 94.5 2
      vertex 100 92.5 38.5
      vertex 100 92.5 2
    endloop
  endfacet
  facet normal 0 0 1
    outer loop
      vertex 100 94.5 40.5
      vertex 95 89.5 40.5
      vertex 100 19 40.5
    endloop
  endfacet
  facet normal 0 0 1
    outer loop
      vertex 100 94.5 40.5
      vertex 25 89.5 40.5
      vertex 95 89.5 40.5
    endloop
  endfacet
  facet normal 0 0 1
    outer loop
      vertex 25 89.5 40.5
      vertex 19 94.5 40.5
      vertex 25 24 40.5
    endloop
  endfacet
  facet normal -0 0 1
    outer loop
      vertex 19 94.5 40.5
      vertex 25 89.5 40.5
      vertex 100 94.5 40.5
    endloop
  endfacet
  facet normal -0 0 1
    outer loop
      vertex 95 24 40.5
      vertex 100 19 40.5
      vertex 95 89.5 40.5
    endloop
  endfacet
  facet normal -0 0 1
    outer loop
      vertex 25 24 40.5
      vertex 100 19 40.5
      vertex 95 24 40.5
    endloop
  endfacet
  facet normal 0 0 1
    outer loop
      vertex 25 24 40.5
      vertex 19 19 40.5
      vertex 100 19 40.5
    endloop
  endfacet
  facet normal 0 0 1
    outer loop
      vertex 19 19 40.5
      vertex 25 24 40.5
      vertex 19 94.5 40.5
    endloop
  endfacet
  facet normal 0 0 -1
    outer loop
      vertex 100 21 38.5
      vertex 95 24 38.5
      vertex 100 92.5 38.5
    endloop
  endfacet
  facet normal 0 0 -1
    outer loop
      vertex 21 21 38.5
      vertex 95 24 38.5
      vertex 100 21 38.5
    endloop
  endfacet
  facet normal -0 0 -1
    outer loop
      vertex 25 24 38.5
      vertex 21 21 38.5
      vertex 25 89.5 38.5
    endloop
  endfacet
  facet normal -0 0 -1
    outer loop
      vertex 95 24 38.5
      vertex 21 21 38.5
      vertex 25 24 38.5
    endloop
  endfacet
  facet normal 0 0 -1
    outer loop
      vertex 95 89.5 38.5
      vertex 100 92.5 38.5
      vertex 95 24 38.5
    endloop
  endfacet
  facet normal 0 0 -1
    outer loop
      vertex 21 92.5 38.5
      vertex 95 89.5 38.5
      vertex 25 89.5 38.5
    endloop
  endfacet
  facet normal 0 0 -1
    outer loop
      vertex 95 89.5 38.5
      vertex 21 92.5 38.5
      vertex 100 92.5 38.5
    endloop
  endfacet
  facet normal 0 0 -1
    outer loop
      vertex 21 92.5 38.5
      vertex 25 89.5 38.5
      vertex 21 21 38.5
    endloop
  endfacet
  facet normal 0 1 -0
    outer loop
      vertex 60 94.5 2
      vertex 40 94.5 32.7679
      vertex 60 94.5 32.7679
    endloop
  endfacet
  facet normal 0 1 0
    outer loop
      vertex 40 94.5 32.7679
      vertex 60 94.5 2
      vertex 40 94.5 2
    endloop
  endfacet
  facet normal 0 1 0
    outer loop
      vertex 60 94.5 32.7679
      vertex 100 94.5 40.5
      vertex 80 94.5 32.7679
    endloop
  endfacet
  facet normal 0 1 -0
    outer loop
      vertex 100 94.5 2
      vertex 80 94.5 32.7679
      vertex 100 94.5 40.5
    endloop
  endfacet
  facet normal 0 1 0
    outer loop
      vertex 80 94.5 32.7679
      vertex 100 94.5 2
      vertex 80 94.5 2
    endloop
  endfacet
  facet normal 0 1 0
    outer loop
      vertex 100 94.5 40.5
      vertex 60 94.5 32.7679
      vertex 19 94.5 40.5
    endloop
  endfacet
  facet normal 0 1 -0
    outer loop
      vertex 40 94.5 32.7679
      vertex 19 94.5 40.5
      vertex 60 94.5 32.7679
    endloop
  endfacet
  facet normal 0 1 -0
    outer loop
      vertex 20 94.5 32.7679
      vertex 19 94.5 40.5
      vertex 40 94.5 32.7679
    endloop
  endfacet
  facet normal 0 1 0
    outer loop
      vertex 20 94.5 32.7679
      vertex 19 94.5 32.7679
      vertex 19 94.5 40.5
    endloop
  endfacet
  facet normal 0 1 -0
    outer loop
      vertex 20 94.5 2
      vertex 19 94.5 32.7679
      vertex 20 94.5 32.7679
    endloop
  endfacet
  facet normal 0 1 0
    outer loop
      vertex 19 94.5 32.7679
      vertex 20 94.5 2
      vertex 10.7558 94.5 2
    endloop
  endfacet
  facet normal 0 -1 0
    outer loop
      vertex 40 19 2
      vertex 60 19 32.7679
      vertex 40 19 32.7679
    endloop
  endfacet
  facet normal 0 -1 -0
    outer loop
      vertex 60 19 32.7679
      vertex 40 19 2
      vertex 60 19 2
    endloop
  endfacet
  facet normal 0 -1 0
    outer loop
      vertex 20 19 2
      vertex 19 19 32.7679
      vertex 10.7558 19 2
    endloop
  endfacet
  facet normal 0 -1 0
    outer loop
      vertex 19 19 32.7679
      vertex 20 19 2
      vertex 20 19 32.7679
    endloop
  endfacet
  facet normal 0 -1 0
    outer loop
      vertex 20 19 32.7679
      vertex 19 19 40.5
      vertex 19 19 32.7679
    endloop
  endfacet
  facet normal 0 -1 0
    outer loop
      vertex 40 19 32.7679
      vertex 19 19 40.5
      vertex 20 19 32.7679
    endloop
  endfacet
  facet normal 0 -1 0
    outer loop
      vertex 60 19 32.7679
      vertex 19 19 40.5
      vertex 40 19 32.7679
    endloop
  endfacet
  facet normal 0 -1 0
    outer loop
      vertex 19 19 40.5
      vertex 60 19 32.7679
      vertex 100 19 40.5
    endloop
  endfacet
  facet normal 0 -1 0
    outer loop
      vertex 80 19 32.7679
      vertex 100 19 40.5
      vertex 60 19 32.7679
    endloop
  endfacet
  facet normal 0 -1 0
    outer loop
      vertex 100 19 2
      vertex 80 19 32.7679
      vertex 80 19 2
    endloop
  endfacet
  facet normal 0 -1 0
    outer loop
      vertex 80 19 32.7679
      vertex 100 19 2
      vertex 100 19 40.5
    endloop
  endfacet
  facet normal -1 0 0
    outer loop
      vertex 95 24 38.5
      vertex 95 89.5 40.5
      vertex 95 89.5 38.5
    endloop
  endfacet
  facet normal -1 -0 0
    outer loop
      vertex 95 89.5 40.5
      vertex 95 24 38.5
      vertex 95 24 40.5
    endloop
  endfacet
  facet normal 1 -0 0
    outer loop
      vertex 25 24 40.5
      vertex 25 89.5 38.5
      vertex 25 89.5 40.5
    endloop
  endfacet
  facet normal 1 0 0
    outer loop
      vertex 25 89.5 38.5
      vertex 25 24 40.5
      vertex 25 24 38.5
    endloop
  endfacet
  facet normal 0 -1 0
    outer loop
      vertex 25 89.5 38.5
      vertex 95 89.5 40.5
      vertex 25 89.5 40.5
    endloop
  endfacet
  facet normal 0 -1 -0
    outer loop
      vertex 95 89.5 40.5
      vertex 25 89.5 38.5
      vertex 95 89.5 38.5
    endloop
  endfacet
  facet normal 0 1 -0
    outer loop
      vertex 95 24 38.5
      vertex 25 24 40.5
      vertex 95 24 40.5
    endloop
  endfacet
  facet normal 0 1 0
    outer loop
      vertex 25 24 40.5
      vertex 95 24 38.5
      vertex 25 24 38.5
    endloop
  endfacet
  facet normal 1 -0 0
    outer loop
      vertex 21 87.5 7
      vertex 21 92.5 2
      vertex 21 92.5 38.5
    endloop
  endfacet
  facet normal 1 0 0
    outer loop
      vertex 21 87.5 7
      vertex 21 92.5 38.5
      vertex 21 87.5 33.5
    endloop
  endfacet
  facet normal 1 -0 0
    outer loop
      vertex 21 21 38.5
      vertex 21 87.5 33.5
      vertex 21 92.5 38.5
    endloop
  endfacet
  facet normal 1 0 0
    outer loop
      vertex 21 21 2
      vertex 21 24 7
      vertex 21 24 33.5
    endloop
  endfacet
  facet normal 1 0 0
    outer loop
      vertex 21 87.5 33.5
      vertex 21 21 38.5
      vertex 21 24 33.5
    endloop
  endfacet
  facet normal 1 0 0
    outer loop
      vertex 21 21 2
      vertex 21 24 33.5
      vertex 21 21 38.5
    endloop
  endfacet
  facet normal 1 0 0
    outer loop
      vertex 21 24 7
      vertex 21 21 2
      vertex 21 24 2
    endloop
  endfacet
  facet normal 1 0 0
    outer loop
      vertex 21 92.5 2
      vertex 21 87.5 7
      vertex 21 89.5 2
    endloop
  endfacet
  facet normal 1 0 0
    outer loop
      vertex 21 24 2
      vertex 21 87.5 7
      vertex 21 24 7
    endloop
  endfacet
  facet normal 1 0 0
    outer loop
      vertex 21 87.5 7
      vertex 21 24 2
      vertex 21 89.5 2
    endloop
  endfacet
  facet normal -1 0 0
    outer loop
      vertex 19 24 32.7679
      vertex 19 19 32.7679
      vertex 19 24 33.5
    endloop
  endfacet
  facet normal -1 0 0
    outer loop
      vertex 19 89.5 2
      vertex 19 87.5 7
      vertex 19 89.5 32.7679
    endloop
  endfacet
  facet normal -1 0 0
    outer loop
      vertex 19 24 2
      vertex 19 87.5 7
      vertex 19 89.5 2
    endloop
  endfacet
  facet normal -1 -0 0
    outer loop
      vertex 19 87.5 7
      vertex 19 24 2
      vertex 19 24 7
    endloop
  endfacet
  facet normal -1 0 0
    outer loop
      vertex 19 89.5 32.7679
      vertex 19 94.5 40.5
      vertex 19 94.5 32.7679
    endloop
  endfacet
  facet normal -1 0 0
    outer loop
      vertex 19 87.5 33.5
      vertex 19 89.5 32.7679
      vertex 19 87.5 7
    endloop
  endfacet
  facet normal -1 0 0
    outer loop
      vertex 19 87.5 33.5
      vertex 19 94.5 40.5
      vertex 19 89.5 32.7679
    endloop
  endfacet
  facet normal -1 0 0
    outer loop
      vertex 19 19 40.5
      vertex 19 87.5 33.5
      vertex 19 24 33.5
    endloop
  endfacet
  facet normal -1 0 0
    outer loop
      vertex 19 87.5 33.5
      vertex 19 19 40.5
      vertex 19 94.5 40.5
    endloop
  endfacet
  facet normal -1 0 0
    outer loop
      vertex 19 19 40.5
      vertex 19 24 33.5
      vertex 19 19 32.7679
    endloop
  endfacet
  facet normal 0 0 -1
    outer loop
      vertex 20 24 33.5
      vertex 21 87.5 33.5
      vertex 21 24 33.5
    endloop
  endfacet
  facet normal 0 0 -1
    outer loop
      vertex 19 87.5 33.5
      vertex 20 24 33.5
      vertex 19.1962 24 33.5
    endloop
  endfacet
  facet normal 0 0 -1
    outer loop
      vertex 19 87.5 33.5
      vertex 19.1962 24 33.5
      vertex 19 24 33.5
    endloop
  endfacet
  facet normal 0 0 -1
    outer loop
      vertex 20 24 33.5
      vertex 19 87.5 33.5
      vertex 21 87.5 33.5
    endloop
  endfacet
  facet normal 0 0 1
    outer loop
      vertex 21 87.5 7
      vertex 20 24 7
      vertex 21 24 7
    endloop
  endfacet
  facet normal -0 0 1
    outer loop
      vertex 19 87.5 7
      vertex 20 24 7
      vertex 21 87.5 7
    endloop
  endfacet
  facet normal 0 0 1
    outer loop
      vertex 20 24 7
      vertex 19 87.5 7
      vertex 19 24 7
    endloop
  endfacet
  facet normal 0 -1 0
    outer loop
      vertex 19 87.5 7
      vertex 21 87.5 33.5
      vertex 19 87.5 33.5
    endloop
  endfacet
  facet normal 0 -1 -0
    outer loop
      vertex 21 87.5 33.5
      vertex 19 87.5 7
      vertex 21 87.5 7
    endloop
  endfacet
  facet normal -0 1 0
    outer loop
      vertex 19 24 33.5
      vertex 19.1962 24 33.5
      vertex 19 24 32.7679
    endloop
  endfacet
  facet normal 0 1 -0
    outer loop
      vertex 21 24 7
      vertex 20 24 33.5
      vertex 21 24 33.5
    endloop
  endfacet
  facet normal 0 1 0
    outer loop
      vertex 20 24 33.5
      vertex 21 24 7
      vertex 20 24 7
    endloop
  endfacet
  facet normal 0 1 0
    outer loop
      vertex 20 24 33.5
      vertex 19 24 32.7679
      vertex 19.1962 24 33.5
    endloop
  endfacet
  facet normal 0 1 -0
    outer loop
      vertex 20 24 7
      vertex 19 24 32.7679
      vertex 20 24 33.5
    endloop
  endfacet
  facet normal 0 1 0
    outer loop
      vertex 19 24 7
      vertex 19 24 32.7679
      vertex 20 24 7
    endloop
  endfacet
  facet normal 0 1 0
    outer loop
      vertex 10.7558 24 2
      vertex 19 24 7
      vertex 19 24 2
    endloop
  endfacet
  facet normal 0 1 -0
    outer loop
      vertex 19 24 7
      vertex 10.7558 24 2
      vertex 19 24 32.7679
    endloop
  endfacet
  facet normal 0 1 -0
    outer loop
      vertex 100 21 2
      vertex 21 21 38.5
      vertex 100 21 38.5
    endloop
  endfacet
  facet normal 0 1 0
    outer loop
      vertex 21 21 38.5
      vertex 100 21 2
      vertex 21 21 2
    endloop
  endfacet
  facet normal 0 -1 0
    outer loop
      vertex 21 92.5 2
      vertex 100 92.5 38.5
      vertex 21 92.5 38.5
    endloop
  endfacet
  facet normal 0 -1 -0
    outer loop
      vertex 100 92.5 38.5
      vertex 21 92.5 2
      vertex 100 92.5 2
    endloop
  endfacet
  facet normal -0.965926 0 0.258818
    outer loop
      vertex 10.7558 19 2
      vertex 19 24 32.7679
      vertex 10.7558 24 2
    endloop
  endfacet
  facet normal -0.965926 0 0.258818
    outer loop
      vertex 19 24 32.7679
      vertex 10.7558 19 2
      vertex 19 19 32.7679
    endloop
  endfacet
  facet normal 0 -1 -0
    outer loop
      vertex 19 89.5 32.7679
      vertex 10.7558 89.5 2
      vertex 19 89.5 2
    endloop
  endfacet
  facet normal -0.965926 0 0.258818
    outer loop
      vertex 10.7558 89.5 2
      vertex 19 94.5 32.7679
      vertex 10.7558 94.5 2
    endloop
  endfacet
  facet normal -0.965926 0 0.258818
    outer loop
      vertex 19 94.5 32.7679
      vertex 10.7558 89.5 2
      vertex 19 89.5 32.7679
    endloop
  endfacet
  facet normal 1 -0 0
    outer loop
      vertex 96 9 13.25
      vertex 96 12 2
      vertex 96 12 13.25
    endloop
  endfacet
  facet normal 1 0 0
    outer loop
      vertex 96 12 2
      vertex 96 9 13.25
      vertex 96 9 2
    endloop
  endfacet
  facet normal -0 0 1
    outer loop
      vertex 84 12 18.25
      vertex 102 9 18.25
      vertex 102 12 18.25
    endloop
  endfacet
  facet normal 0 0 1
    outer loop
      vertex 102 9 18.25
      vertex 84 12 18.25
      vertex 84 9 18.25
    endloop
  endfacet
  facet normal -1 0 0
    outer loop
      vertex 84 9 2
      vertex 84 12 18.25
      vertex 84 12 2
    endloop
  endfacet
  facet normal -1 -0 0
    outer loop
      vertex 84 12 18.25
      vertex 84 9 2
      vertex 84 9 18.25
    endloop
  endfacet
  facet normal 0 1 0
    outer loop
      vertex 96 12 13.25
      vertex 102 12 18.25
      vertex 102 12 13.25
    endloop
  endfacet
  facet normal 0 1 0
    outer loop
      vertex 102 12 18.25
      vertex 96 12 13.25
      vertex 84 12 18.25
    endloop
  endfacet
  facet normal 0 1 0
    outer loop
      vertex 84 12 2
      vertex 96 12 13.25
      vertex 96 12 2
    endloop
  endfacet
  facet normal 0 1 0
    outer loop
      vertex 96 12 13.25
      vertex 84 12 2
      vertex 84 12 18.25
    endloop
  endfacet
  facet normal 0 -1 0
    outer loop
      vertex 84 9 18.25
      vertex 96 9 13.25
      vertex 102 9 18.25
    endloop
  endfacet
  facet normal 0 -1 0
    outer loop
      vertex 84 9 2
      vertex 96 9 13.25
      vertex 84 9 18.25
    endloop
  endfacet
  facet normal 0 -1 -0
    outer loop
      vertex 96 9 13.25
      vertex 84 9 2
      vertex 96 9 2
    endloop
  endfacet
  facet normal 0 -1 -0
    outer loop
      vertex 102 9 18.25
      vertex 96 9 13.25
      vertex 102 9 13.25
    endloop
  endfacet
  facet normal 1 -0 0
    outer loop
      vertex 97 2 13.25
      vertex 97 5 2
      vertex 97 5 13.25
    endloop
  endfacet
  facet normal 1 0 0
    outer loop
      vertex 97 5 2
      vertex 97 2 13.25
      vertex 97 2 2
    endloop
  endfacet
  facet normal -0 0 1
    outer loop
      vertex 85 5 18.25
      vertex 102 2 18.25
      vertex 102 5 18.25
    endloop
  endfacet
  facet normal 0 0 1
    outer loop
      vertex 102 2 18.25
      vertex 85 5 18.25
      vertex 85 2 18.25
    endloop
  endfacet
  facet normal -1 0 0
    outer loop
      vertex 85 2 2
      vertex 85 5 18.25
      vertex 85 5 2
    endloop
  endfacet
  facet normal -1 -0 0
    outer loop
      vertex 85 5 18.25
      vertex 85 2 2
      vertex 85 2 18.25
    endloop
  endfacet
  facet normal 0 1 0
    outer loop
      vertex 97 5 13.25
      vertex 102 5 18.25
      vertex 102 5 13.25
    endloop
  endfacet
  facet normal 0 1 0
    outer loop
      vertex 102 5 18.25
      vertex 97 5 13.25
      vertex 85 5 18.25
    endloop
  endfacet
  facet normal 0 1 0
    outer loop
      vertex 85 5 2
      vertex 97 5 13.25
      vertex 97 5 2
    endloop
  endfacet
  facet normal 0 1 0
    outer loop
      vertex 97 5 13.25
      vertex 85 5 2
      vertex 85 5 18.25
    endloop
  endfacet
  facet normal 0 -1 0
    outer loop
      vertex 85 2 18.25
      vertex 97 2 13.25
      vertex 102 2 18.25
    endloop
  endfacet
  facet normal 0 -1 0
    outer loop
      vertex 85 2 2
      vertex 97 2 13.25
      vertex 85 2 18.25
    endloop
  endfacet
  facet normal 0 -1 -0
    outer loop
      vertex 97 2 13.25
      vertex 85 2 2
      vertex 97 2 2
    endloop
  endfacet
  facet normal 0 -1 -0
    outer loop
      vertex 102 2 18.25
      vertex 97 2 13.25
      vertex 102 2 13.25
    endloop
  endfacet
  facet normal 1 -0 0
    outer loop
      vertex 102 9 18.25
      vertex 102 12 13.25
      vertex 102 12 18.25
    endloop
  endfacet
  facet normal 1 0 0
    outer loop
      vertex 102 12 13.25
      vertex 102 9 18.25
      vertex 102 9 13.25
    endloop
  endfacet
  facet normal 0 0 -1
    outer loop
      vertex 96 9 13.25
      vertex 102 12 13.25
      vertex 102 9 13.25
    endloop
  endfacet
  facet normal -0 0 -1
    outer loop
      vertex 102 12 13.25
      vertex 96 9 13.25
      vertex 96 12 13.25
    endloop
  endfacet
  facet normal 1 -0 0
    outer loop
      vertex 102 2 18.25
      vertex 102 5 13.25
      vertex 102 5 18.25
    endloop
  endfacet
  facet normal 1 0 0
    outer loop
      vertex 102 5 13.25
      vertex 102 2 18.25
      vertex 102 2 13.25
    endloop
  endfacet
  facet normal 0 0 -1
    outer loop
      vertex 97 2 13.25
      vertex 102 5 13.25
      vertex 102 2 13.25
    endloop
  endfacet
  facet normal -0 0 -1
    outer loop
      vertex 102 5 13.25
      vertex 97 2 13.25
      vertex 97 5 13.25
    endloop
  endfacet
endsolid OpenSCAD_Model
